<mxfile host="www.draw.io" modified="2019-10-20T01:09:34.070Z" agent="Mozilla/5.0 (Windows NT 10.0; Win64; x64) AppleWebKit/537.36 (KHTML, like Gecko) Chrome/77.0.3865.120 Safari/537.36" etag="4AJ8P-vIDRr6te73JAO_" version="12.1.3" type="github" pages="1">
  <diagram id="H5ZcVqwOVLQch6x29UJz" name="Page-1">
    <mxGraphModel dx="1463" dy="763" grid="1" gridSize="10" guides="1" tooltips="1" connect="1" arrows="1" fold="1" page="1" pageScale="1" pageWidth="850" pageHeight="1100" math="0" shadow="0">
      <root>
        <mxCell id="0"/>
        <mxCell id="1" parent="0"/>
        <mxCell id="CMPPMDgxON7yKhk_aNS9-1" value="&lt;span&gt;f_name&lt;/span&gt;" style="whiteSpace=wrap;html=1;rounded=1;shadow=1;comic=0;labelBackgroundColor=none;strokeColor=#000000;strokeWidth=2;fillColor=#FFFFFF;fontFamily=Verdana;fontSize=12;fontColor=#000000;align=center;arcSize=50;" parent="1" vertex="1">
          <mxGeometry x="320" y="115" width="100" height="20" as="geometry"/>
        </mxCell>
        <mxCell id="CMPPMDgxON7yKhk_aNS9-2" value="&lt;span&gt;l-name&lt;/span&gt;" style="whiteSpace=wrap;html=1;rounded=1;shadow=1;comic=0;labelBackgroundColor=none;strokeColor=#000000;strokeWidth=2;fillColor=#FFFFFF;fontFamily=Verdana;fontSize=12;fontColor=#000000;align=center;arcSize=50;" parent="1" vertex="1">
          <mxGeometry x="360" y="75" width="100" height="20" as="geometry"/>
        </mxCell>
        <mxCell id="CMPPMDgxON7yKhk_aNS9-3" style="edgeStyle=none;rounded=0;orthogonalLoop=1;jettySize=auto;html=1;exitX=0.75;exitY=1;exitDx=0;exitDy=0;entryX=-0.003;entryY=0.409;entryDx=0;entryDy=0;entryPerimeter=0;startArrow=none;startFill=0;endArrow=none;endFill=0;" parent="1" source="CMPPMDgxON7yKhk_aNS9-4" target="CMPPMDgxON7yKhk_aNS9-146" edge="1">
          <mxGeometry relative="1" as="geometry"/>
        </mxCell>
        <mxCell id="CMPPMDgxON7yKhk_aNS9-4" value="&lt;span&gt;total price&lt;/span&gt;" style="whiteSpace=wrap;html=1;rounded=1;shadow=1;comic=0;labelBackgroundColor=none;strokeColor=#000000;strokeWidth=2;fillColor=#FFFFFF;fontFamily=Verdana;fontSize=12;fontColor=#000000;align=center;arcSize=50;" parent="1" vertex="1">
          <mxGeometry x="884" y="87.5" width="100" height="20" as="geometry"/>
        </mxCell>
        <mxCell id="CMPPMDgxON7yKhk_aNS9-5" style="edgeStyle=none;rounded=0;orthogonalLoop=1;jettySize=auto;html=1;exitX=0.5;exitY=1;exitDx=0;exitDy=0;entryX=0;entryY=0;entryDx=28.5;entryDy=0;entryPerimeter=0;startArrow=none;startFill=0;endArrow=none;endFill=0;" parent="1" source="CMPPMDgxON7yKhk_aNS9-6" target="CMPPMDgxON7yKhk_aNS9-146" edge="1">
          <mxGeometry relative="1" as="geometry"/>
        </mxCell>
        <mxCell id="CMPPMDgxON7yKhk_aNS9-6" value="&lt;span&gt;ship date&lt;/span&gt;" style="whiteSpace=wrap;html=1;rounded=1;shadow=1;comic=0;labelBackgroundColor=none;strokeColor=#000000;strokeWidth=2;fillColor=#FFFFFF;fontFamily=Verdana;fontSize=12;fontColor=#000000;align=center;arcSize=50;" parent="1" vertex="1">
          <mxGeometry x="970" y="55" width="100" height="20" as="geometry"/>
        </mxCell>
        <mxCell id="CMPPMDgxON7yKhk_aNS9-7" style="edgeStyle=none;rounded=0;orthogonalLoop=1;jettySize=auto;html=1;exitX=0.5;exitY=1;exitDx=0;exitDy=0;entryX=0;entryY=0;entryDx=85.5;entryDy=0;entryPerimeter=0;startArrow=none;startFill=0;endArrow=none;endFill=0;" parent="1" source="CMPPMDgxON7yKhk_aNS9-8" target="CMPPMDgxON7yKhk_aNS9-146" edge="1">
          <mxGeometry relative="1" as="geometry"/>
        </mxCell>
        <mxCell id="CMPPMDgxON7yKhk_aNS9-8" value="&lt;span&gt;shipper_id&lt;/span&gt;" style="whiteSpace=wrap;html=1;rounded=1;shadow=1;comic=0;labelBackgroundColor=none;strokeColor=#d79b00;strokeWidth=2;fillColor=#ffe6cc;fontFamily=Verdana;fontSize=12;align=center;arcSize=50;" parent="1" vertex="1">
          <mxGeometry x="1107.5" y="60" width="100" height="20" as="geometry"/>
        </mxCell>
        <mxCell id="CMPPMDgxON7yKhk_aNS9-9" style="edgeStyle=none;rounded=0;orthogonalLoop=1;jettySize=auto;html=1;exitX=0.25;exitY=0;exitDx=0;exitDy=0;entryX=0;entryY=0;entryDx=85.5;entryDy=70;entryPerimeter=0;startArrow=none;startFill=0;endArrow=none;endFill=0;" parent="1" source="CMPPMDgxON7yKhk_aNS9-10" target="CMPPMDgxON7yKhk_aNS9-146" edge="1">
          <mxGeometry relative="1" as="geometry"/>
        </mxCell>
        <mxCell id="CMPPMDgxON7yKhk_aNS9-10" value="&lt;span&gt;cart_id&lt;/span&gt;" style="whiteSpace=wrap;html=1;rounded=1;shadow=1;comic=0;labelBackgroundColor=none;strokeColor=#d79b00;strokeWidth=2;fillColor=#ffe6cc;fontFamily=Verdana;fontSize=12;align=center;arcSize=50;" parent="1" vertex="1">
          <mxGeometry x="1112.5" y="290.5" width="100" height="20" as="geometry"/>
        </mxCell>
        <mxCell id="CMPPMDgxON7yKhk_aNS9-11" style="edgeStyle=none;rounded=0;orthogonalLoop=1;jettySize=auto;html=1;exitX=0.25;exitY=0;exitDx=0;exitDy=0;entryX=1;entryY=1;entryDx=0;entryDy=0;entryPerimeter=0;startArrow=none;startFill=0;endArrow=none;endFill=0;" parent="1" source="CMPPMDgxON7yKhk_aNS9-12" target="CMPPMDgxON7yKhk_aNS9-146" edge="1">
          <mxGeometry relative="1" as="geometry"/>
        </mxCell>
        <mxCell id="CMPPMDgxON7yKhk_aNS9-12" value="&lt;span&gt;order creation date&lt;/span&gt;" style="whiteSpace=wrap;html=1;rounded=1;shadow=1;comic=0;labelBackgroundColor=none;strokeColor=#000000;strokeWidth=2;fillColor=#FFFFFF;fontFamily=Verdana;fontSize=12;fontColor=#000000;align=center;arcSize=50;" parent="1" vertex="1">
          <mxGeometry x="1130" y="230" width="100" height="38" as="geometry"/>
        </mxCell>
        <mxCell id="CMPPMDgxON7yKhk_aNS9-13" style="edgeStyle=none;rounded=0;orthogonalLoop=1;jettySize=auto;html=1;exitX=0.5;exitY=0;exitDx=0;exitDy=0;entryX=0.5;entryY=1;entryDx=0;entryDy=0;entryPerimeter=0;startArrow=none;startFill=0;endArrow=none;endFill=0;" parent="1" source="CMPPMDgxON7yKhk_aNS9-14" target="CMPPMDgxON7yKhk_aNS9-146" edge="1">
          <mxGeometry relative="1" as="geometry"/>
        </mxCell>
        <mxCell id="CMPPMDgxON7yKhk_aNS9-14" value="&lt;span&gt;user_id&lt;/span&gt;" style="whiteSpace=wrap;html=1;rounded=1;shadow=1;comic=0;labelBackgroundColor=none;strokeColor=#d79b00;strokeWidth=2;fillColor=#ffe6cc;fontFamily=Verdana;fontSize=12;align=center;arcSize=50;" parent="1" vertex="1">
          <mxGeometry x="1052.5" y="332.5" width="100" height="20" as="geometry"/>
        </mxCell>
        <mxCell id="CMPPMDgxON7yKhk_aNS9-15" style="edgeStyle=none;rounded=0;orthogonalLoop=1;jettySize=auto;html=1;exitX=0;exitY=0.75;exitDx=0;exitDy=0;entryX=0;entryY=0;entryDx=114;entryDy=17.5;entryPerimeter=0;startArrow=none;startFill=0;endArrow=none;endFill=0;" parent="1" source="CMPPMDgxON7yKhk_aNS9-16" target="CMPPMDgxON7yKhk_aNS9-146" edge="1">
          <mxGeometry relative="1" as="geometry"/>
        </mxCell>
        <mxCell id="CMPPMDgxON7yKhk_aNS9-16" value="order_id" style="whiteSpace=wrap;html=1;rounded=1;shadow=1;comic=0;labelBackgroundColor=none;strokeColor=#6c8ebf;strokeWidth=2;fillColor=#dae8fc;fontFamily=Verdana;fontSize=12;align=center;arcSize=50;" parent="1" vertex="1">
          <mxGeometry x="1187" y="107.5" width="100" height="20" as="geometry"/>
        </mxCell>
        <mxCell id="CMPPMDgxON7yKhk_aNS9-17" style="edgeStyle=none;rounded=0;orthogonalLoop=1;jettySize=auto;html=1;exitX=0;exitY=0.75;exitDx=0;exitDy=0;entryX=1;entryY=0.5;entryDx=0;entryDy=0;endArrow=none;endFill=0;" parent="1" source="CMPPMDgxON7yKhk_aNS9-199" target="CMPPMDgxON7yKhk_aNS9-42" edge="1">
          <mxGeometry relative="1" as="geometry">
            <mxPoint x="290" y="320" as="sourcePoint"/>
          </mxGeometry>
        </mxCell>
        <mxCell id="CMPPMDgxON7yKhk_aNS9-18" style="edgeStyle=none;rounded=0;orthogonalLoop=1;jettySize=auto;html=1;exitX=0.25;exitY=1;exitDx=0;exitDy=0;entryX=1;entryY=0.25;entryDx=0;entryDy=0;endArrow=none;endFill=0;" parent="1" source="CMPPMDgxON7yKhk_aNS9-199" target="CMPPMDgxON7yKhk_aNS9-39" edge="1">
          <mxGeometry relative="1" as="geometry">
            <mxPoint x="312.62699999999995" y="355.06999999999994" as="sourcePoint"/>
          </mxGeometry>
        </mxCell>
        <mxCell id="CMPPMDgxON7yKhk_aNS9-19" style="edgeStyle=none;rounded=0;orthogonalLoop=1;jettySize=auto;html=1;exitX=0.5;exitY=1;exitDx=0;exitDy=0;entryX=0.5;entryY=0;entryDx=0;entryDy=0;endArrow=none;endFill=0;" parent="1" source="CMPPMDgxON7yKhk_aNS9-199" target="CMPPMDgxON7yKhk_aNS9-40" edge="1">
          <mxGeometry relative="1" as="geometry">
            <mxPoint x="350.5" y="355" as="sourcePoint"/>
          </mxGeometry>
        </mxCell>
        <mxCell id="CMPPMDgxON7yKhk_aNS9-20" style="rounded=0;orthogonalLoop=1;jettySize=auto;html=1;exitX=0;exitY=0.5;exitDx=0;exitDy=0;entryX=1;entryY=0.5;entryDx=0;entryDy=0;endArrow=none;endFill=0;" parent="1" source="CMPPMDgxON7yKhk_aNS9-27" target="CMPPMDgxON7yKhk_aNS9-33" edge="1">
          <mxGeometry relative="1" as="geometry"/>
        </mxCell>
        <mxCell id="CMPPMDgxON7yKhk_aNS9-21" style="edgeStyle=none;rounded=0;orthogonalLoop=1;jettySize=auto;html=1;exitX=0.5;exitY=1;exitDx=0;exitDy=0;entryX=0.5;entryY=0;entryDx=0;entryDy=0;endArrow=none;endFill=0;" parent="1" source="CMPPMDgxON7yKhk_aNS9-27" target="CMPPMDgxON7yKhk_aNS9-43" edge="1">
          <mxGeometry relative="1" as="geometry"/>
        </mxCell>
        <mxCell id="CMPPMDgxON7yKhk_aNS9-22" style="edgeStyle=none;rounded=0;orthogonalLoop=1;jettySize=auto;html=1;exitX=0.75;exitY=1;exitDx=0;exitDy=0;entryX=0.5;entryY=0;entryDx=0;entryDy=0;endArrow=none;endFill=0;" parent="1" source="CMPPMDgxON7yKhk_aNS9-27" target="CMPPMDgxON7yKhk_aNS9-44" edge="1">
          <mxGeometry relative="1" as="geometry"/>
        </mxCell>
        <mxCell id="CMPPMDgxON7yKhk_aNS9-23" style="edgeStyle=none;rounded=0;orthogonalLoop=1;jettySize=auto;html=1;exitX=1;exitY=0.5;exitDx=0;exitDy=0;entryX=0;entryY=0.5;entryDx=0;entryDy=0;endArrow=classic;endFill=1;startArrow=ERmandOne;startFill=0;" parent="1" source="CMPPMDgxON7yKhk_aNS9-27" target="CMPPMDgxON7yKhk_aNS9-87" edge="1">
          <mxGeometry relative="1" as="geometry"/>
        </mxCell>
        <mxCell id="CMPPMDgxON7yKhk_aNS9-24" style="edgeStyle=none;rounded=0;orthogonalLoop=1;jettySize=auto;html=1;exitX=1;exitY=0.75;exitDx=0;exitDy=0;entryX=0;entryY=0;entryDx=0;entryDy=0;endArrow=classic;endFill=1;startArrow=ERzeroToOne;startFill=1;" parent="1" source="CMPPMDgxON7yKhk_aNS9-27" target="CMPPMDgxON7yKhk_aNS9-89" edge="1">
          <mxGeometry relative="1" as="geometry"/>
        </mxCell>
        <mxCell id="CMPPMDgxON7yKhk_aNS9-25" style="edgeStyle=none;rounded=0;orthogonalLoop=1;jettySize=auto;html=1;exitX=0;exitY=0.25;exitDx=0;exitDy=0;entryX=0.75;entryY=1;entryDx=0;entryDy=0;startArrow=none;startFill=0;endArrow=none;endFill=0;" parent="1" source="CMPPMDgxON7yKhk_aNS9-27" target="CMPPMDgxON7yKhk_aNS9-1" edge="1">
          <mxGeometry relative="1" as="geometry"/>
        </mxCell>
        <mxCell id="CMPPMDgxON7yKhk_aNS9-26" style="edgeStyle=none;rounded=0;orthogonalLoop=1;jettySize=auto;html=1;exitX=0.25;exitY=0;exitDx=0;exitDy=0;entryX=0.5;entryY=1;entryDx=0;entryDy=0;startArrow=none;startFill=0;endArrow=none;endFill=0;" parent="1" source="CMPPMDgxON7yKhk_aNS9-27" target="CMPPMDgxON7yKhk_aNS9-2" edge="1">
          <mxGeometry relative="1" as="geometry"/>
        </mxCell>
        <mxCell id="CMPPMDgxON7yKhk_aNS9-27" value="Customer" style="rounded=0;whiteSpace=wrap;html=1;" parent="1" vertex="1">
          <mxGeometry x="490" y="155" width="120" height="60" as="geometry"/>
        </mxCell>
        <mxCell id="CMPPMDgxON7yKhk_aNS9-28" style="rounded=0;orthogonalLoop=1;jettySize=auto;html=1;exitX=0;exitY=0.5;exitDx=0;exitDy=0;entryX=1;entryY=0.5;entryDx=0;entryDy=0;" parent="1" source="CMPPMDgxON7yKhk_aNS9-33" target="CMPPMDgxON7yKhk_aNS9-37" edge="1">
          <mxGeometry relative="1" as="geometry"/>
        </mxCell>
        <mxCell id="CMPPMDgxON7yKhk_aNS9-29" style="rounded=0;orthogonalLoop=1;jettySize=auto;html=1;exitX=0;exitY=0;exitDx=0;exitDy=0;entryX=1;entryY=0.5;entryDx=0;entryDy=0;" parent="1" source="CMPPMDgxON7yKhk_aNS9-33" target="CMPPMDgxON7yKhk_aNS9-36" edge="1">
          <mxGeometry relative="1" as="geometry"/>
        </mxCell>
        <mxCell id="CMPPMDgxON7yKhk_aNS9-30" style="rounded=0;orthogonalLoop=1;jettySize=auto;html=1;exitX=0;exitY=0;exitDx=0;exitDy=0;entryX=1;entryY=0.5;entryDx=0;entryDy=0;" parent="1" source="CMPPMDgxON7yKhk_aNS9-33" target="CMPPMDgxON7yKhk_aNS9-38" edge="1">
          <mxGeometry relative="1" as="geometry"/>
        </mxCell>
        <mxCell id="CMPPMDgxON7yKhk_aNS9-31" style="rounded=0;orthogonalLoop=1;jettySize=auto;html=1;exitX=0.5;exitY=0;exitDx=0;exitDy=0;entryX=1;entryY=0.5;entryDx=0;entryDy=0;" parent="1" source="CMPPMDgxON7yKhk_aNS9-33" target="CMPPMDgxON7yKhk_aNS9-34" edge="1">
          <mxGeometry relative="1" as="geometry"/>
        </mxCell>
        <mxCell id="CMPPMDgxON7yKhk_aNS9-32" style="rounded=0;orthogonalLoop=1;jettySize=auto;html=1;exitX=0;exitY=1;exitDx=0;exitDy=0;entryX=1;entryY=0.25;entryDx=0;entryDy=0;" parent="1" source="CMPPMDgxON7yKhk_aNS9-33" target="CMPPMDgxON7yKhk_aNS9-35" edge="1">
          <mxGeometry relative="1" as="geometry"/>
        </mxCell>
        <mxCell id="CMPPMDgxON7yKhk_aNS9-33" value="eircode" style="ellipse;shape=doubleEllipse;whiteSpace=wrap;html=1;shadow=1;comic=0;strokeWidth=1;" parent="1" vertex="1">
          <mxGeometry x="200" y="135" width="100" height="60" as="geometry"/>
        </mxCell>
        <mxCell id="CMPPMDgxON7yKhk_aNS9-34" value="&lt;span&gt;country&lt;/span&gt;" style="whiteSpace=wrap;html=1;rounded=1;shadow=1;comic=0;labelBackgroundColor=none;strokeColor=#000000;strokeWidth=2;fillColor=#FFFFFF;fontFamily=Verdana;fontSize=12;fontColor=#000000;align=center;arcSize=50;dashed=1;dashPattern=1 1;" parent="1" vertex="1">
          <mxGeometry x="150" y="65" width="100" height="20" as="geometry"/>
        </mxCell>
        <mxCell id="CMPPMDgxON7yKhk_aNS9-35" value="&lt;span&gt;house/apt No.&lt;/span&gt;" style="whiteSpace=wrap;html=1;rounded=1;shadow=1;comic=0;labelBackgroundColor=none;strokeColor=#000000;strokeWidth=2;fillColor=#FFFFFF;fontFamily=Verdana;fontSize=12;fontColor=#000000;align=center;arcSize=50;dashed=1;dashPattern=1 1;" parent="1" vertex="1">
          <mxGeometry x="90" y="227.5" width="100" height="20" as="geometry"/>
        </mxCell>
        <mxCell id="CMPPMDgxON7yKhk_aNS9-36" value="town" style="whiteSpace=wrap;html=1;rounded=1;shadow=1;comic=0;labelBackgroundColor=none;strokeColor=#000000;strokeWidth=2;fillColor=#FFFFFF;fontFamily=Verdana;fontSize=12;fontColor=#000000;align=center;arcSize=50;dashed=1;dashPattern=1 1;" parent="1" vertex="1">
          <mxGeometry x="40" y="135" width="100" height="20" as="geometry"/>
        </mxCell>
        <mxCell id="CMPPMDgxON7yKhk_aNS9-37" value="&lt;span&gt;street&lt;/span&gt;" style="whiteSpace=wrap;html=1;rounded=1;shadow=1;comic=0;labelBackgroundColor=none;strokeColor=#000000;strokeWidth=2;fillColor=#FFFFFF;fontFamily=Verdana;fontSize=12;fontColor=#000000;align=center;arcSize=50;dashed=1;dashPattern=1 1;" parent="1" vertex="1">
          <mxGeometry x="60" y="177.5" width="100" height="20" as="geometry"/>
        </mxCell>
        <mxCell id="CMPPMDgxON7yKhk_aNS9-38" value="&lt;span&gt;city&lt;/span&gt;" style="whiteSpace=wrap;html=1;rounded=1;shadow=1;comic=0;labelBackgroundColor=none;strokeColor=#000000;strokeWidth=2;fillColor=#FFFFFF;fontFamily=Verdana;fontSize=12;fontColor=#000000;align=center;arcSize=50;dashed=1;dashPattern=1 1;" parent="1" vertex="1">
          <mxGeometry x="60" y="97.5" width="100" height="20" as="geometry"/>
        </mxCell>
        <mxCell id="CMPPMDgxON7yKhk_aNS9-39" value="&lt;span&gt;Credit card expiry no&lt;/span&gt;" style="whiteSpace=wrap;html=1;rounded=1;shadow=1;comic=0;labelBackgroundColor=none;strokeColor=#000000;strokeWidth=2;fillColor=#FFFFFF;fontFamily=Verdana;fontSize=12;fontColor=#000000;align=center;arcSize=50;" parent="1" vertex="1">
          <mxGeometry x="150" y="405" width="100" height="30" as="geometry"/>
        </mxCell>
        <mxCell id="CMPPMDgxON7yKhk_aNS9-40" value="security code" style="whiteSpace=wrap;html=1;rounded=1;shadow=1;comic=0;labelBackgroundColor=none;strokeColor=#000000;strokeWidth=2;fillColor=#FFFFFF;fontFamily=Verdana;fontSize=12;fontColor=#000000;align=center;arcSize=50;" parent="1" vertex="1">
          <mxGeometry x="240" y="445" width="100" height="20" as="geometry"/>
        </mxCell>
        <mxCell id="CMPPMDgxON7yKhk_aNS9-41" value="&lt;span&gt;credit card type&lt;/span&gt;" style="whiteSpace=wrap;html=1;rounded=1;shadow=1;comic=0;labelBackgroundColor=none;strokeColor=#000000;strokeWidth=2;fillColor=#FFFFFF;fontFamily=Verdana;fontSize=12;fontColor=#000000;align=center;arcSize=50;" parent="1" vertex="1">
          <mxGeometry x="360" y="430" width="100" height="34" as="geometry"/>
        </mxCell>
        <mxCell id="CMPPMDgxON7yKhk_aNS9-42" value="&lt;span&gt;credit card no&lt;/span&gt;" style="whiteSpace=wrap;html=1;rounded=1;shadow=1;comic=0;labelBackgroundColor=none;strokeColor=#000000;strokeWidth=2;fillColor=#FFFFFF;fontFamily=Verdana;fontSize=12;fontColor=#000000;align=center;arcSize=50;" parent="1" vertex="1">
          <mxGeometry x="90" y="358" width="100" height="20" as="geometry"/>
        </mxCell>
        <mxCell id="CMPPMDgxON7yKhk_aNS9-43" value="&lt;span&gt;password&lt;/span&gt;" style="whiteSpace=wrap;html=1;rounded=1;shadow=1;comic=0;labelBackgroundColor=none;strokeColor=#000000;strokeWidth=2;fillColor=#FFFFFF;fontFamily=Verdana;fontSize=12;fontColor=#000000;align=center;arcSize=50;" parent="1" vertex="1">
          <mxGeometry x="459" y="288" width="100" height="20" as="geometry"/>
        </mxCell>
        <mxCell id="CMPPMDgxON7yKhk_aNS9-44" value="&lt;span&gt;user_id&lt;/span&gt;" style="whiteSpace=wrap;html=1;rounded=1;shadow=1;comic=0;labelBackgroundColor=none;strokeColor=#6c8ebf;strokeWidth=2;fillColor=#dae8fc;fontFamily=Verdana;fontSize=12;align=center;arcSize=50;" parent="1" vertex="1">
          <mxGeometry x="573" y="285" width="100" height="20" as="geometry"/>
        </mxCell>
        <mxCell id="CMPPMDgxON7yKhk_aNS9-45" style="edgeStyle=none;rounded=0;orthogonalLoop=1;jettySize=auto;html=1;entryX=0.5;entryY=1;entryDx=0;entryDy=0;startArrow=none;startFill=0;endArrow=none;endFill=0;exitX=0.119;exitY=0.013;exitDx=0;exitDy=0;exitPerimeter=0;" parent="1" source="CMPPMDgxON7yKhk_aNS9-179" target="CMPPMDgxON7yKhk_aNS9-50" edge="1">
          <mxGeometry relative="1" as="geometry">
            <mxPoint x="1010.5" y="435.5" as="sourcePoint"/>
          </mxGeometry>
        </mxCell>
        <mxCell id="CMPPMDgxON7yKhk_aNS9-46" style="edgeStyle=none;rounded=0;orthogonalLoop=1;jettySize=auto;html=1;exitX=0.5;exitY=0;exitDx=0;exitDy=0;entryX=0.5;entryY=1;entryDx=0;entryDy=0;startArrow=none;startFill=0;endArrow=none;endFill=0;exitPerimeter=0;" parent="1" source="CMPPMDgxON7yKhk_aNS9-179" target="CMPPMDgxON7yKhk_aNS9-48" edge="1">
          <mxGeometry relative="1" as="geometry">
            <mxPoint x="1071.5" y="424" as="sourcePoint"/>
          </mxGeometry>
        </mxCell>
        <mxCell id="CMPPMDgxON7yKhk_aNS9-47" value="" style="edgeStyle=none;rounded=0;orthogonalLoop=1;jettySize=auto;html=1;startArrow=none;startFill=0;endArrow=none;endFill=0;exitX=0.895;exitY=-0.003;exitDx=0;exitDy=0;exitPerimeter=0;" parent="1" source="CMPPMDgxON7yKhk_aNS9-179" target="CMPPMDgxON7yKhk_aNS9-49" edge="1">
          <mxGeometry relative="1" as="geometry"/>
        </mxCell>
        <mxCell id="CMPPMDgxON7yKhk_aNS9-48" value="&lt;span&gt;order_id&lt;/span&gt;" style="whiteSpace=wrap;html=1;rounded=1;shadow=1;comic=0;labelBackgroundColor=none;strokeColor=#d79b00;strokeWidth=2;fillColor=#ffe6cc;fontFamily=Verdana;fontSize=12;align=center;arcSize=50;" parent="1" vertex="1">
          <mxGeometry x="1030" y="375" width="100" height="20" as="geometry"/>
        </mxCell>
        <mxCell id="CMPPMDgxON7yKhk_aNS9-49" value="&lt;span&gt;shipping_id&lt;/span&gt;" style="whiteSpace=wrap;html=1;rounded=1;shadow=1;comic=0;labelBackgroundColor=none;strokeColor=#6c8ebf;strokeWidth=2;fillColor=#dae8fc;fontFamily=Verdana;fontSize=12;align=center;arcSize=50;" parent="1" vertex="1">
          <mxGeometry x="1088.5" y="403" width="83" height="23" as="geometry"/>
        </mxCell>
        <mxCell id="CMPPMDgxON7yKhk_aNS9-50" value="&lt;span&gt;product_id&lt;/span&gt;" style="whiteSpace=wrap;html=1;rounded=1;shadow=1;comic=0;labelBackgroundColor=none;strokeColor=#d79b00;strokeWidth=2;fillColor=#ffe6cc;fontFamily=Verdana;fontSize=12;align=center;arcSize=50;" parent="1" vertex="1">
          <mxGeometry x="965.5" y="400" width="85" height="22" as="geometry"/>
        </mxCell>
        <mxCell id="CMPPMDgxON7yKhk_aNS9-51" style="edgeStyle=none;rounded=0;orthogonalLoop=1;jettySize=auto;html=1;exitX=1;exitY=0.5;exitDx=0;exitDy=0;entryX=0;entryY=0.5;entryDx=0;entryDy=0;startArrow=none;startFill=0;endArrow=ERone;endFill=0;entryPerimeter=0;" parent="1" source="CMPPMDgxON7yKhk_aNS9-53" target="CMPPMDgxON7yKhk_aNS9-179" edge="1">
          <mxGeometry relative="1" as="geometry">
            <mxPoint x="1011.5000000000005" y="464" as="targetPoint"/>
          </mxGeometry>
        </mxCell>
        <mxCell id="CMPPMDgxON7yKhk_aNS9-52" style="edgeStyle=none;rounded=0;orthogonalLoop=1;jettySize=auto;html=1;exitX=0.5;exitY=1;exitDx=0;exitDy=0;entryX=0.063;entryY=0.042;entryDx=0;entryDy=0;entryPerimeter=0;startArrow=classic;startFill=1;endArrow=ERzeroToMany;endFill=1;" parent="1" source="CMPPMDgxON7yKhk_aNS9-53" target="CMPPMDgxON7yKhk_aNS9-109" edge="1">
          <mxGeometry relative="1" as="geometry"/>
        </mxCell>
        <mxCell id="CMPPMDgxON7yKhk_aNS9-53" value="SHIPPED BY" style="rhombus;whiteSpace=wrap;html=1;dashed=1;" parent="1" vertex="1">
          <mxGeometry x="885.5" y="456.5" width="80" height="80" as="geometry"/>
        </mxCell>
        <mxCell id="CMPPMDgxON7yKhk_aNS9-54" style="edgeStyle=none;rounded=0;orthogonalLoop=1;jettySize=auto;html=1;exitX=0.017;exitY=1.017;exitDx=0;exitDy=0;entryX=1;entryY=0;entryDx=0;entryDy=0;startArrow=ERmandOne;startFill=0;endArrow=classic;endFill=1;exitPerimeter=0;" parent="1" source="CMPPMDgxON7yKhk_aNS9-143" target="CMPPMDgxON7yKhk_aNS9-126" edge="1">
          <mxGeometry relative="1" as="geometry">
            <mxPoint x="1528.573593128831" y="303.28427124744553" as="sourcePoint"/>
          </mxGeometry>
        </mxCell>
        <mxCell id="CMPPMDgxON7yKhk_aNS9-55" value="&lt;span&gt;gender&lt;/span&gt;" style="whiteSpace=wrap;html=1;rounded=1;shadow=1;comic=0;labelBackgroundColor=none;strokeColor=#000000;strokeWidth=2;fillColor=#FFFFFF;fontFamily=Verdana;fontSize=12;fontColor=#000000;align=center;arcSize=50;" parent="1" vertex="1">
          <mxGeometry x="1392.5" y="184.5" width="100" height="20" as="geometry"/>
        </mxCell>
        <mxCell id="CMPPMDgxON7yKhk_aNS9-56" value="&lt;span&gt;dob&lt;/span&gt;" style="whiteSpace=wrap;html=1;rounded=1;shadow=1;comic=0;labelBackgroundColor=none;strokeColor=#000000;strokeWidth=2;fillColor=#FFFFFF;fontFamily=Verdana;fontSize=12;fontColor=#000000;align=center;arcSize=50;" parent="1" vertex="1">
          <mxGeometry x="1512" y="220" width="100" height="20" as="geometry"/>
        </mxCell>
        <mxCell id="CMPPMDgxON7yKhk_aNS9-57" value="&lt;span&gt;age&lt;/span&gt;" style="whiteSpace=wrap;html=1;rounded=1;shadow=1;comic=0;labelBackgroundColor=none;strokeColor=#000000;strokeWidth=2;fillColor=#FFFFFF;fontFamily=Verdana;fontSize=12;fontColor=#000000;align=center;arcSize=50;dashed=1;dashPattern=1 1;" parent="1" vertex="1">
          <mxGeometry x="1546" y="142" width="100" height="20" as="geometry"/>
        </mxCell>
        <mxCell id="CMPPMDgxON7yKhk_aNS9-58" style="edgeStyle=none;rounded=0;orthogonalLoop=1;jettySize=auto;html=1;exitX=0.5;exitY=1;exitDx=0;exitDy=0;startArrow=none;startFill=0;endArrow=none;endFill=0;" parent="1" source="CMPPMDgxON7yKhk_aNS9-59" target="CMPPMDgxON7yKhk_aNS9-143" edge="1">
          <mxGeometry relative="1" as="geometry"/>
        </mxCell>
        <mxCell id="CMPPMDgxON7yKhk_aNS9-59" value="&lt;span&gt;f_name&lt;/span&gt;" style="whiteSpace=wrap;html=1;rounded=1;shadow=1;comic=0;labelBackgroundColor=none;strokeColor=#000000;strokeWidth=2;fillColor=#FFFFFF;fontFamily=Verdana;fontSize=12;fontColor=#000000;align=center;arcSize=50;" parent="1" vertex="1">
          <mxGeometry x="1609.5" y="179.5" width="100" height="20" as="geometry"/>
        </mxCell>
        <mxCell id="CMPPMDgxON7yKhk_aNS9-60" style="edgeStyle=none;rounded=0;orthogonalLoop=1;jettySize=auto;html=1;exitX=0;exitY=0.5;exitDx=0;exitDy=0;entryX=0.671;entryY=-0.008;entryDx=0;entryDy=0;entryPerimeter=0;startArrow=none;startFill=0;endArrow=none;endFill=0;" parent="1" source="CMPPMDgxON7yKhk_aNS9-61" target="CMPPMDgxON7yKhk_aNS9-143" edge="1">
          <mxGeometry relative="1" as="geometry"/>
        </mxCell>
        <mxCell id="CMPPMDgxON7yKhk_aNS9-61" value="l_name" style="whiteSpace=wrap;html=1;rounded=1;shadow=1;comic=0;labelBackgroundColor=none;strokeColor=#000000;strokeWidth=2;fillColor=#FFFFFF;fontFamily=Verdana;fontSize=12;fontColor=#000000;align=center;arcSize=50;" parent="1" vertex="1">
          <mxGeometry x="1696" y="208.5" width="100" height="20" as="geometry"/>
        </mxCell>
        <mxCell id="CMPPMDgxON7yKhk_aNS9-62" style="edgeStyle=none;rounded=0;orthogonalLoop=1;jettySize=auto;html=1;exitX=0.75;exitY=0;exitDx=0;exitDy=0;entryX=0;entryY=0.75;entryDx=0;entryDy=0;startArrow=none;startFill=0;endArrow=none;endFill=0;" parent="1" source="4p4MBh4yowYJrrC4Kuk--1" target="CMPPMDgxON7yKhk_aNS9-156" edge="1">
          <mxGeometry relative="1" as="geometry">
            <mxPoint x="2004.3553390593274" y="152.78679656440363" as="sourcePoint"/>
          </mxGeometry>
        </mxCell>
        <mxCell id="CMPPMDgxON7yKhk_aNS9-64" style="edgeStyle=none;rounded=0;orthogonalLoop=1;jettySize=auto;html=1;exitX=0.75;exitY=0;exitDx=0;exitDy=0;startArrow=none;startFill=0;endArrow=none;endFill=0;entryX=0.5;entryY=1;entryDx=0;entryDy=0;" parent="1" source="CMPPMDgxON7yKhk_aNS9-65" target="CMPPMDgxON7yKhk_aNS9-202" edge="1">
          <mxGeometry relative="1" as="geometry">
            <mxPoint x="1647.5" y="558" as="targetPoint"/>
          </mxGeometry>
        </mxCell>
        <mxCell id="CMPPMDgxON7yKhk_aNS9-65" value="&lt;span&gt;acc_id&lt;/span&gt;" style="whiteSpace=wrap;html=1;rounded=1;shadow=1;comic=0;labelBackgroundColor=none;strokeColor=#000000;strokeWidth=2;fillColor=#FFFFFF;fontFamily=Verdana;fontSize=12;fontColor=#000000;align=center;arcSize=50;" parent="1" vertex="1">
          <mxGeometry x="1559" y="599" width="100" height="20" as="geometry"/>
        </mxCell>
        <mxCell id="CMPPMDgxON7yKhk_aNS9-66" style="edgeStyle=none;rounded=0;orthogonalLoop=1;jettySize=auto;html=1;exitX=0.25;exitY=0;exitDx=0;exitDy=0;entryX=0.75;entryY=1;entryDx=0;entryDy=0;startArrow=none;startFill=0;endArrow=none;endFill=0;" parent="1" source="CMPPMDgxON7yKhk_aNS9-67" target="CMPPMDgxON7yKhk_aNS9-202" edge="1">
          <mxGeometry relative="1" as="geometry">
            <mxPoint x="1696.44" y="557.5799999999999" as="targetPoint"/>
          </mxGeometry>
        </mxCell>
        <mxCell id="CMPPMDgxON7yKhk_aNS9-67" value="&lt;span&gt;acc swift&lt;/span&gt;" style="whiteSpace=wrap;html=1;rounded=1;shadow=1;comic=0;labelBackgroundColor=none;strokeColor=#000000;strokeWidth=2;fillColor=#FFFFFF;fontFamily=Verdana;fontSize=12;fontColor=#000000;align=center;arcSize=50;" parent="1" vertex="1">
          <mxGeometry x="1676" y="599" width="100" height="20" as="geometry"/>
        </mxCell>
        <mxCell id="CMPPMDgxON7yKhk_aNS9-68" style="edgeStyle=none;rounded=0;orthogonalLoop=1;jettySize=auto;html=1;exitX=0;exitY=0.25;exitDx=0;exitDy=0;startArrow=none;startFill=0;endArrow=none;endFill=0;entryX=1;entryY=0.75;entryDx=0;entryDy=0;" parent="1" source="CMPPMDgxON7yKhk_aNS9-69" target="CMPPMDgxON7yKhk_aNS9-202" edge="1">
          <mxGeometry relative="1" as="geometry">
            <mxPoint x="1704.5" y="558" as="targetPoint"/>
          </mxGeometry>
        </mxCell>
        <mxCell id="CMPPMDgxON7yKhk_aNS9-69" value="&lt;span&gt;iban&lt;/span&gt;" style="whiteSpace=wrap;html=1;rounded=1;shadow=1;comic=0;labelBackgroundColor=none;strokeColor=#000000;strokeWidth=2;fillColor=#FFFFFF;fontFamily=Verdana;fontSize=12;fontColor=#000000;align=center;arcSize=50;" parent="1" vertex="1">
          <mxGeometry x="1746" y="570" width="100" height="20" as="geometry"/>
        </mxCell>
        <mxCell id="CMPPMDgxON7yKhk_aNS9-70" style="edgeStyle=none;rounded=0;orthogonalLoop=1;jettySize=auto;html=1;exitX=0;exitY=0.5;exitDx=0;exitDy=0;entryX=1;entryY=0.5;entryDx=0;entryDy=0;startArrow=none;startFill=0;endArrow=none;endFill=0;" parent="1" source="CMPPMDgxON7yKhk_aNS9-71" target="CMPPMDgxON7yKhk_aNS9-202" edge="1">
          <mxGeometry relative="1" as="geometry">
            <mxPoint x="1740" y="505.5" as="targetPoint"/>
          </mxGeometry>
        </mxCell>
        <mxCell id="CMPPMDgxON7yKhk_aNS9-71" value="&lt;span&gt;acc sort&lt;/span&gt;" style="whiteSpace=wrap;html=1;rounded=1;shadow=1;comic=0;labelBackgroundColor=none;strokeColor=#000000;strokeWidth=2;fillColor=#FFFFFF;fontFamily=Verdana;fontSize=12;fontColor=#000000;align=center;arcSize=50;" parent="1" vertex="1">
          <mxGeometry x="1766" y="509" width="100" height="20" as="geometry"/>
        </mxCell>
        <mxCell id="CMPPMDgxON7yKhk_aNS9-72" style="edgeStyle=none;rounded=0;orthogonalLoop=1;jettySize=auto;html=1;exitX=0;exitY=0.75;exitDx=0;exitDy=0;entryX=1;entryY=0.25;entryDx=0;entryDy=0;endArrow=none;endFill=0;" parent="1" source="CMPPMDgxON7yKhk_aNS9-73" target="CMPPMDgxON7yKhk_aNS9-143" edge="1">
          <mxGeometry relative="1" as="geometry"/>
        </mxCell>
        <mxCell id="CMPPMDgxON7yKhk_aNS9-73" value="&lt;span&gt;email&lt;/span&gt;" style="whiteSpace=wrap;html=1;rounded=1;shadow=1;comic=0;labelBackgroundColor=none;strokeColor=#000000;strokeWidth=2;fillColor=#FFFFFF;fontFamily=Verdana;fontSize=12;fontColor=#000000;align=center;arcSize=50;" parent="1" vertex="1">
          <mxGeometry x="1676" y="288" width="100" height="20" as="geometry"/>
        </mxCell>
        <mxCell id="CMPPMDgxON7yKhk_aNS9-74" style="edgeStyle=none;rounded=0;orthogonalLoop=1;jettySize=auto;html=1;exitX=0;exitY=0.5;exitDx=0;exitDy=0;entryX=1;entryY=0.5;entryDx=0;entryDy=0;endArrow=none;endFill=0;" parent="1" source="CMPPMDgxON7yKhk_aNS9-75" target="CMPPMDgxON7yKhk_aNS9-143" edge="1">
          <mxGeometry relative="1" as="geometry"/>
        </mxCell>
        <mxCell id="CMPPMDgxON7yKhk_aNS9-75" value="&lt;span&gt;phone&lt;/span&gt;" style="whiteSpace=wrap;html=1;rounded=1;shadow=1;comic=0;labelBackgroundColor=none;strokeColor=#000000;strokeWidth=2;fillColor=#FFFFFF;fontFamily=Verdana;fontSize=12;fontColor=#000000;align=center;arcSize=50;" parent="1" vertex="1">
          <mxGeometry x="1612" y="332.5" width="100" height="20" as="geometry"/>
        </mxCell>
        <mxCell id="CMPPMDgxON7yKhk_aNS9-76" style="edgeStyle=none;rounded=0;orthogonalLoop=1;jettySize=auto;html=1;exitX=1;exitY=0.5;exitDx=0;exitDy=0;entryX=0;entryY=0.5;entryDx=0;entryDy=0;entryPerimeter=0;startArrow=classic;startFill=1;endArrow=ERmandOne;endFill=0;" parent="1" source="CMPPMDgxON7yKhk_aNS9-77" target="CMPPMDgxON7yKhk_aNS9-166" edge="1">
          <mxGeometry relative="1" as="geometry"/>
        </mxCell>
        <mxCell id="CMPPMDgxON7yKhk_aNS9-77" value="PAID TO" style="rhombus;whiteSpace=wrap;html=1;dashed=1;" parent="1" vertex="1">
          <mxGeometry x="1676" y="350" width="80" height="80" as="geometry"/>
        </mxCell>
        <mxCell id="CMPPMDgxON7yKhk_aNS9-78" style="edgeStyle=none;rounded=0;orthogonalLoop=1;jettySize=auto;html=1;exitX=0.5;exitY=0;exitDx=0;exitDy=0;entryX=0;entryY=0;entryDx=85.5;entryDy=70;entryPerimeter=0;startArrow=none;startFill=0;endArrow=none;endFill=0;" parent="1" source="CMPPMDgxON7yKhk_aNS9-79" target="CMPPMDgxON7yKhk_aNS9-166" edge="1">
          <mxGeometry relative="1" as="geometry"/>
        </mxCell>
        <mxCell id="CMPPMDgxON7yKhk_aNS9-79" value="&lt;span&gt;pay cycle&lt;/span&gt;" style="whiteSpace=wrap;html=1;rounded=1;shadow=1;comic=0;labelBackgroundColor=none;strokeColor=#000000;strokeWidth=2;fillColor=#FFFFFF;fontFamily=Verdana;fontSize=12;fontColor=#000000;align=center;arcSize=50;" parent="1" vertex="1">
          <mxGeometry x="1976" y="564" width="100" height="20" as="geometry"/>
        </mxCell>
        <mxCell id="CMPPMDgxON7yKhk_aNS9-80" style="edgeStyle=none;rounded=0;orthogonalLoop=1;jettySize=auto;html=1;exitX=0.5;exitY=0;exitDx=0;exitDy=0;entryX=0;entryY=0;entryDx=28.5;entryDy=70;entryPerimeter=0;startArrow=none;startFill=0;endArrow=none;endFill=0;" parent="1" source="CMPPMDgxON7yKhk_aNS9-81" target="CMPPMDgxON7yKhk_aNS9-166" edge="1">
          <mxGeometry relative="1" as="geometry"/>
        </mxCell>
        <mxCell id="CMPPMDgxON7yKhk_aNS9-81" value="&lt;span&gt;wages_id&lt;/span&gt;" style="whiteSpace=wrap;html=1;rounded=1;shadow=1;comic=0;labelBackgroundColor=none;strokeColor=#6c8ebf;strokeWidth=2;fillColor=#dae8fc;fontFamily=Verdana;fontSize=12;align=center;arcSize=50;" parent="1" vertex="1">
          <mxGeometry x="1866" y="554" width="100" height="20" as="geometry"/>
        </mxCell>
        <mxCell id="CMPPMDgxON7yKhk_aNS9-82" style="edgeStyle=none;rounded=0;orthogonalLoop=1;jettySize=auto;html=1;exitX=0;exitY=0.25;exitDx=0;exitDy=0;entryX=1;entryY=0.364;entryDx=0;entryDy=0;entryPerimeter=0;startArrow=none;startFill=0;endArrow=none;endFill=0;" parent="1" source="CMPPMDgxON7yKhk_aNS9-83" target="CMPPMDgxON7yKhk_aNS9-166" edge="1">
          <mxGeometry relative="1" as="geometry"/>
        </mxCell>
        <mxCell id="CMPPMDgxON7yKhk_aNS9-83" value="&lt;span&gt;employee_id&lt;/span&gt;" style="whiteSpace=wrap;html=1;rounded=1;shadow=1;comic=0;labelBackgroundColor=none;strokeColor=#d79b00;strokeWidth=2;fillColor=#ffe6cc;fontFamily=Verdana;fontSize=12;align=center;arcSize=50;" parent="1" vertex="1">
          <mxGeometry x="2091" y="442.5" width="100" height="20" as="geometry"/>
        </mxCell>
        <mxCell id="CMPPMDgxON7yKhk_aNS9-84" style="edgeStyle=none;rounded=0;orthogonalLoop=1;jettySize=auto;html=1;exitX=0;exitY=0.5;exitDx=0;exitDy=0;entryX=0;entryY=0;entryDx=114;entryDy=52.5;entryPerimeter=0;startArrow=none;startFill=0;endArrow=none;endFill=0;" parent="1" source="CMPPMDgxON7yKhk_aNS9-85" target="CMPPMDgxON7yKhk_aNS9-166" edge="1">
          <mxGeometry relative="1" as="geometry"/>
        </mxCell>
        <mxCell id="CMPPMDgxON7yKhk_aNS9-85" value="&lt;span&gt;employee wage&lt;/span&gt;" style="whiteSpace=wrap;html=1;rounded=1;shadow=1;comic=0;labelBackgroundColor=none;strokeColor=#000000;strokeWidth=1;fillColor=#FFFFFF;fontFamily=Verdana;fontSize=12;fontColor=#000000;align=center;arcSize=50;dashed=1;" parent="1" vertex="1">
          <mxGeometry x="2086" y="502.5" width="100" height="27" as="geometry"/>
        </mxCell>
        <mxCell id="CMPPMDgxON7yKhk_aNS9-86" style="edgeStyle=none;rounded=0;orthogonalLoop=1;jettySize=auto;html=1;exitX=1;exitY=0.5;exitDx=0;exitDy=0;endArrow=ERzeroToMany;endFill=1;entryX=0;entryY=0;entryDx=0;entryDy=52.5;entryPerimeter=0;" parent="1" source="CMPPMDgxON7yKhk_aNS9-87" target="CMPPMDgxON7yKhk_aNS9-146" edge="1">
          <mxGeometry relative="1" as="geometry">
            <mxPoint x="1012" y="170" as="targetPoint"/>
          </mxGeometry>
        </mxCell>
        <mxCell id="CMPPMDgxON7yKhk_aNS9-87" value="Makes" style="rhombus;whiteSpace=wrap;html=1;dashed=1;" parent="1" vertex="1">
          <mxGeometry x="743.5" y="149" width="80" height="80" as="geometry"/>
        </mxCell>
        <mxCell id="CMPPMDgxON7yKhk_aNS9-88" style="edgeStyle=none;rounded=0;orthogonalLoop=1;jettySize=auto;html=1;exitX=0.5;exitY=1;exitDx=0;exitDy=0;entryX=0.5;entryY=0;entryDx=0;entryDy=0;endArrow=ERzeroToMany;endFill=1;" parent="1" source="CMPPMDgxON7yKhk_aNS9-89" target="CMPPMDgxON7yKhk_aNS9-93" edge="1">
          <mxGeometry relative="1" as="geometry"/>
        </mxCell>
        <mxCell id="CMPPMDgxON7yKhk_aNS9-89" value="FILLS" style="rhombus;whiteSpace=wrap;html=1;" parent="1" vertex="1">
          <mxGeometry x="688" y="280.5" width="80" height="80" as="geometry"/>
        </mxCell>
        <mxCell id="CMPPMDgxON7yKhk_aNS9-90" style="edgeStyle=none;rounded=0;orthogonalLoop=1;jettySize=auto;html=1;exitX=0;exitY=0.5;exitDx=0;exitDy=0;entryX=1;entryY=0.5;entryDx=0;entryDy=0;endArrow=none;endFill=0;" parent="1" source="CMPPMDgxON7yKhk_aNS9-93" target="CMPPMDgxON7yKhk_aNS9-102" edge="1">
          <mxGeometry relative="1" as="geometry"/>
        </mxCell>
        <mxCell id="CMPPMDgxON7yKhk_aNS9-91" style="rounded=0;orthogonalLoop=1;jettySize=auto;html=1;exitX=1;exitY=0.5;exitDx=0;exitDy=0;entryX=0;entryY=0;entryDx=0;entryDy=0;startArrow=ERzeroToOne;startFill=1;endArrow=classic;endFill=1;" parent="1" source="CMPPMDgxON7yKhk_aNS9-93" target="CMPPMDgxON7yKhk_aNS9-111" edge="1">
          <mxGeometry relative="1" as="geometry"/>
        </mxCell>
        <mxCell id="CMPPMDgxON7yKhk_aNS9-92" style="edgeStyle=none;rounded=0;orthogonalLoop=1;jettySize=auto;html=1;exitX=1;exitY=0.25;exitDx=0;exitDy=0;entryX=0;entryY=1;entryDx=0;entryDy=0;startArrow=ERmandOne;startFill=0;endArrow=none;endFill=0;" parent="1" source="CMPPMDgxON7yKhk_aNS9-93" target="CMPPMDgxON7yKhk_aNS9-113" edge="1">
          <mxGeometry relative="1" as="geometry"/>
        </mxCell>
        <mxCell id="CMPPMDgxON7yKhk_aNS9-93" value="CART" style="rounded=0;whiteSpace=wrap;html=1;" parent="1" vertex="1">
          <mxGeometry x="660" y="427.5" width="120" height="60" as="geometry"/>
        </mxCell>
        <mxCell id="CMPPMDgxON7yKhk_aNS9-94" style="edgeStyle=none;rounded=0;orthogonalLoop=1;jettySize=auto;html=1;exitX=0.5;exitY=0;exitDx=0;exitDy=0;entryX=0.5;entryY=1;entryDx=0;entryDy=0;endArrow=none;endFill=0;" parent="1" source="CMPPMDgxON7yKhk_aNS9-95" target="CMPPMDgxON7yKhk_aNS9-93" edge="1">
          <mxGeometry relative="1" as="geometry"/>
        </mxCell>
        <mxCell id="CMPPMDgxON7yKhk_aNS9-95" value="&lt;span&gt;subtotal&lt;/span&gt;" style="whiteSpace=wrap;html=1;rounded=1;shadow=1;comic=0;labelBackgroundColor=none;strokeColor=#000000;strokeWidth=2;fillColor=#FFFFFF;fontFamily=Verdana;fontSize=12;fontColor=#000000;align=center;arcSize=50;" parent="1" vertex="1">
          <mxGeometry x="650" y="575.5" width="100" height="20" as="geometry"/>
        </mxCell>
        <mxCell id="CMPPMDgxON7yKhk_aNS9-96" style="edgeStyle=none;rounded=0;orthogonalLoop=1;jettySize=auto;html=1;exitX=0.5;exitY=0;exitDx=0;exitDy=0;entryX=0.299;entryY=1.012;entryDx=0;entryDy=0;entryPerimeter=0;endArrow=none;endFill=0;" parent="1" source="CMPPMDgxON7yKhk_aNS9-97" target="CMPPMDgxON7yKhk_aNS9-93" edge="1">
          <mxGeometry relative="1" as="geometry"/>
        </mxCell>
        <mxCell id="CMPPMDgxON7yKhk_aNS9-97" value="&lt;span&gt;cart creation&lt;br&gt;date&lt;br&gt;&lt;/span&gt;" style="whiteSpace=wrap;html=1;rounded=1;shadow=1;comic=0;labelBackgroundColor=none;strokeColor=#000000;strokeWidth=2;fillColor=#FFFFFF;fontFamily=Verdana;fontSize=12;fontColor=#000000;align=center;arcSize=50;" parent="1" vertex="1">
          <mxGeometry x="560" y="608" width="100" height="33" as="geometry"/>
        </mxCell>
        <mxCell id="CMPPMDgxON7yKhk_aNS9-98" style="edgeStyle=none;rounded=0;orthogonalLoop=1;jettySize=auto;html=1;exitX=1;exitY=0.25;exitDx=0;exitDy=0;entryX=0.109;entryY=1.012;entryDx=0;entryDy=0;entryPerimeter=0;endArrow=none;endFill=0;" parent="1" source="CMPPMDgxON7yKhk_aNS9-99" target="CMPPMDgxON7yKhk_aNS9-93" edge="1">
          <mxGeometry relative="1" as="geometry"/>
        </mxCell>
        <mxCell id="CMPPMDgxON7yKhk_aNS9-99" value="&amp;nbsp;cart_id" style="whiteSpace=wrap;html=1;rounded=1;shadow=1;comic=0;labelBackgroundColor=none;strokeColor=#6c8ebf;strokeWidth=2;fillColor=#dae8fc;fontFamily=Verdana;fontSize=12;align=center;arcSize=50;" parent="1" vertex="1">
          <mxGeometry x="480" y="564" width="70" height="20" as="geometry"/>
        </mxCell>
        <mxCell id="CMPPMDgxON7yKhk_aNS9-100" style="edgeStyle=none;rounded=0;orthogonalLoop=1;jettySize=auto;html=1;exitX=1;exitY=0.5;exitDx=0;exitDy=0;entryX=0;entryY=0.75;entryDx=0;entryDy=0;endArrow=none;endFill=0;" parent="1" source="CMPPMDgxON7yKhk_aNS9-101" target="CMPPMDgxON7yKhk_aNS9-93" edge="1">
          <mxGeometry relative="1" as="geometry"/>
        </mxCell>
        <mxCell id="CMPPMDgxON7yKhk_aNS9-101" value="&lt;span&gt;product_id&lt;/span&gt;" style="whiteSpace=wrap;html=1;rounded=1;shadow=1;comic=0;labelBackgroundColor=none;strokeColor=#d79b00;strokeWidth=2;fillColor=#ffe6cc;fontFamily=Verdana;fontSize=12;align=center;arcSize=50;" parent="1" vertex="1">
          <mxGeometry x="440" y="507.5" width="100" height="20" as="geometry"/>
        </mxCell>
        <mxCell id="CMPPMDgxON7yKhk_aNS9-102" value="&lt;span&gt;item qty&lt;/span&gt;" style="whiteSpace=wrap;html=1;rounded=1;shadow=1;comic=0;labelBackgroundColor=none;strokeColor=#000000;strokeWidth=2;fillColor=#FFFFFF;fontFamily=Verdana;fontSize=12;fontColor=#000000;align=center;arcSize=50;" parent="1" vertex="1">
          <mxGeometry x="450" y="472.5" width="100" height="20" as="geometry"/>
        </mxCell>
        <mxCell id="CMPPMDgxON7yKhk_aNS9-103" style="edgeStyle=none;rounded=0;orthogonalLoop=1;jettySize=auto;html=1;exitX=1;exitY=0.25;exitDx=0;exitDy=0;entryX=0;entryY=0.75;entryDx=0;entryDy=0;startArrow=none;startFill=0;endArrow=none;endFill=0;" parent="1" source="CMPPMDgxON7yKhk_aNS9-109" target="CMPPMDgxON7yKhk_aNS9-125" edge="1">
          <mxGeometry relative="1" as="geometry"/>
        </mxCell>
        <mxCell id="CMPPMDgxON7yKhk_aNS9-104" style="edgeStyle=none;rounded=0;orthogonalLoop=1;jettySize=auto;html=1;exitX=1;exitY=0.5;exitDx=0;exitDy=0;entryX=0;entryY=0.5;entryDx=0;entryDy=0;startArrow=none;startFill=0;endArrow=none;endFill=0;" parent="1" source="CMPPMDgxON7yKhk_aNS9-109" target="CMPPMDgxON7yKhk_aNS9-124" edge="1">
          <mxGeometry relative="1" as="geometry"/>
        </mxCell>
        <mxCell id="CMPPMDgxON7yKhk_aNS9-105" style="edgeStyle=none;rounded=0;orthogonalLoop=1;jettySize=auto;html=1;exitX=0.75;exitY=1;exitDx=0;exitDy=0;startArrow=none;startFill=0;endArrow=none;endFill=0;" parent="1" source="CMPPMDgxON7yKhk_aNS9-109" target="CMPPMDgxON7yKhk_aNS9-123" edge="1">
          <mxGeometry relative="1" as="geometry"/>
        </mxCell>
        <mxCell id="CMPPMDgxON7yKhk_aNS9-106" style="edgeStyle=none;rounded=0;orthogonalLoop=1;jettySize=auto;html=1;exitX=0.75;exitY=0;exitDx=0;exitDy=0;startArrow=ERzeroToMany;startFill=1;endArrow=none;endFill=0;entryX=0;entryY=1;entryDx=0;entryDy=0;" parent="1" source="CMPPMDgxON7yKhk_aNS9-109" target="CMPPMDgxON7yKhk_aNS9-126" edge="1">
          <mxGeometry relative="1" as="geometry">
            <mxPoint x="1240.5" y="570" as="targetPoint"/>
          </mxGeometry>
        </mxCell>
        <mxCell id="CMPPMDgxON7yKhk_aNS9-107" style="edgeStyle=none;rounded=0;orthogonalLoop=1;jettySize=auto;html=1;exitX=1;exitY=0.25;exitDx=0;exitDy=0;startArrow=ERzeroToOne;startFill=1;endArrow=classic;endFill=1;entryX=0;entryY=0.5;entryDx=0;entryDy=0;" parent="1" source="CMPPMDgxON7yKhk_aNS9-109" target="CMPPMDgxON7yKhk_aNS9-128" edge="1">
          <mxGeometry relative="1" as="geometry">
            <mxPoint x="1330.5" y="640.0000000000002" as="targetPoint"/>
          </mxGeometry>
        </mxCell>
        <mxCell id="CMPPMDgxON7yKhk_aNS9-108" style="edgeStyle=none;rounded=0;orthogonalLoop=1;jettySize=auto;html=1;exitX=0.5;exitY=1;exitDx=0;exitDy=0;entryX=0.5;entryY=0;entryDx=0;entryDy=0;startArrow=none;startFill=0;endArrow=none;endFill=0;" parent="1" source="CMPPMDgxON7yKhk_aNS9-109" target="CMPPMDgxON7yKhk_aNS9-120" edge="1">
          <mxGeometry relative="1" as="geometry"/>
        </mxCell>
        <mxCell id="CMPPMDgxON7yKhk_aNS9-109" value="PRODUCT" style="rounded=0;whiteSpace=wrap;html=1;" parent="1" vertex="1">
          <mxGeometry x="1052.5" y="687.5" width="120" height="60" as="geometry"/>
        </mxCell>
        <mxCell id="CMPPMDgxON7yKhk_aNS9-110" style="edgeStyle=none;rounded=0;orthogonalLoop=1;jettySize=auto;html=1;exitX=0.85;exitY=0.679;exitDx=0;exitDy=0;startArrow=none;startFill=0;endArrow=ERzeroToMany;endFill=1;entryX=-0.002;entryY=0.085;entryDx=0;entryDy=0;exitPerimeter=0;entryPerimeter=0;" parent="1" source="CMPPMDgxON7yKhk_aNS9-111" target="CMPPMDgxON7yKhk_aNS9-109" edge="1">
          <mxGeometry relative="1" as="geometry">
            <mxPoint x="1100.5" y="640" as="targetPoint"/>
          </mxGeometry>
        </mxCell>
        <mxCell id="CMPPMDgxON7yKhk_aNS9-111" value="CONTAINS" style="rhombus;whiteSpace=wrap;html=1;" parent="1" vertex="1">
          <mxGeometry x="870" y="564" width="80" height="80" as="geometry"/>
        </mxCell>
        <mxCell id="CMPPMDgxON7yKhk_aNS9-112" style="edgeStyle=none;rounded=0;orthogonalLoop=1;jettySize=auto;html=1;exitX=1;exitY=0;exitDx=0;exitDy=0;entryX=0;entryY=1;entryDx=0;entryDy=0;entryPerimeter=0;startArrow=none;startFill=0;endArrow=ERzeroToOne;endFill=1;" parent="1" source="CMPPMDgxON7yKhk_aNS9-113" target="CMPPMDgxON7yKhk_aNS9-146" edge="1">
          <mxGeometry relative="1" as="geometry"/>
        </mxCell>
        <mxCell id="CMPPMDgxON7yKhk_aNS9-113" value="HAS" style="rhombus;whiteSpace=wrap;html=1;dashed=1;" parent="1" vertex="1">
          <mxGeometry x="870" y="297.5" width="80" height="80" as="geometry"/>
        </mxCell>
        <mxCell id="CMPPMDgxON7yKhk_aNS9-114" style="edgeStyle=none;rounded=0;orthogonalLoop=1;jettySize=auto;html=1;exitX=0.25;exitY=1;exitDx=0;exitDy=0;startArrow=none;startFill=0;endArrow=none;endFill=0;" parent="1" source="CMPPMDgxON7yKhk_aNS9-115" target="CMPPMDgxON7yKhk_aNS9-109" edge="1">
          <mxGeometry relative="1" as="geometry"/>
        </mxCell>
        <mxCell id="CMPPMDgxON7yKhk_aNS9-115" value="&lt;span&gt;size&lt;/span&gt;" style="whiteSpace=wrap;html=1;rounded=1;shadow=1;comic=0;labelBackgroundColor=none;strokeColor=#000000;strokeWidth=2;fillColor=#FFFFFF;fontFamily=Verdana;fontSize=12;fontColor=#000000;align=center;arcSize=50;" parent="1" vertex="1">
          <mxGeometry x="1080" y="555.5" width="68" height="20" as="geometry"/>
        </mxCell>
        <mxCell id="CMPPMDgxON7yKhk_aNS9-116" style="edgeStyle=none;rounded=0;orthogonalLoop=1;jettySize=auto;html=1;exitX=0.25;exitY=1;exitDx=0;exitDy=0;entryX=0.5;entryY=0;entryDx=0;entryDy=0;startArrow=none;startFill=0;endArrow=none;endFill=0;" parent="1" source="CMPPMDgxON7yKhk_aNS9-117" target="CMPPMDgxON7yKhk_aNS9-109" edge="1">
          <mxGeometry relative="1" as="geometry"/>
        </mxCell>
        <mxCell id="CMPPMDgxON7yKhk_aNS9-117" value="&lt;span&gt;flavour&lt;br&gt;&lt;/span&gt;" style="whiteSpace=wrap;html=1;rounded=1;shadow=1;comic=0;labelBackgroundColor=none;strokeColor=#000000;strokeWidth=2;fillColor=#FFFFFF;fontFamily=Verdana;fontSize=12;fontColor=#000000;align=center;arcSize=50;" parent="1" vertex="1">
          <mxGeometry x="1112.5" y="588" width="78" height="23" as="geometry"/>
        </mxCell>
        <mxCell id="CMPPMDgxON7yKhk_aNS9-118" style="edgeStyle=none;rounded=0;orthogonalLoop=1;jettySize=auto;html=1;exitX=0.5;exitY=1;exitDx=0;exitDy=0;entryX=0.25;entryY=0;entryDx=0;entryDy=0;startArrow=none;startFill=0;endArrow=none;endFill=0;" parent="1" source="CMPPMDgxON7yKhk_aNS9-119" target="CMPPMDgxON7yKhk_aNS9-109" edge="1">
          <mxGeometry relative="1" as="geometry"/>
        </mxCell>
        <mxCell id="CMPPMDgxON7yKhk_aNS9-119" value="price" style="whiteSpace=wrap;html=1;rounded=1;shadow=1;comic=0;labelBackgroundColor=none;strokeColor=#000000;strokeWidth=2;fillColor=#FFFFFF;fontFamily=Verdana;fontSize=12;fontColor=#000000;align=center;arcSize=50;" parent="1" vertex="1">
          <mxGeometry x="984" y="588" width="100" height="20" as="geometry"/>
        </mxCell>
        <mxCell id="CMPPMDgxON7yKhk_aNS9-120" value="&lt;span&gt;item unit qty&lt;/span&gt;" style="whiteSpace=wrap;html=1;rounded=1;shadow=1;comic=0;labelBackgroundColor=none;strokeColor=#000000;strokeWidth=2;fillColor=#FFFFFF;fontFamily=Verdana;fontSize=12;fontColor=#000000;align=center;arcSize=50;" parent="1" vertex="1">
          <mxGeometry x="1038.5" y="817.5" width="100" height="20" as="geometry"/>
        </mxCell>
        <mxCell id="CMPPMDgxON7yKhk_aNS9-121" style="edgeStyle=none;rounded=0;orthogonalLoop=1;jettySize=auto;html=1;exitX=1;exitY=0.5;exitDx=0;exitDy=0;startArrow=none;startFill=0;endArrow=none;endFill=0;entryX=0.061;entryY=0.989;entryDx=0;entryDy=0;entryPerimeter=0;" parent="1" source="CMPPMDgxON7yKhk_aNS9-122" target="CMPPMDgxON7yKhk_aNS9-109" edge="1">
          <mxGeometry relative="1" as="geometry">
            <mxPoint x="990.5" y="800" as="targetPoint"/>
          </mxGeometry>
        </mxCell>
        <mxCell id="CMPPMDgxON7yKhk_aNS9-122" value="&amp;nbsp;product_id" style="whiteSpace=wrap;html=1;rounded=1;shadow=1;comic=0;labelBackgroundColor=none;strokeColor=#6c8ebf;strokeWidth=2;fillColor=#dae8fc;fontFamily=Verdana;fontSize=12;align=center;arcSize=50;" parent="1" vertex="1">
          <mxGeometry x="900" y="777.5" width="100" height="30" as="geometry"/>
        </mxCell>
        <mxCell id="CMPPMDgxON7yKhk_aNS9-123" value="&lt;span&gt;description&lt;/span&gt;" style="whiteSpace=wrap;html=1;rounded=1;shadow=1;comic=0;labelBackgroundColor=none;strokeColor=#000000;strokeWidth=2;fillColor=#FFFFFF;fontFamily=Verdana;fontSize=12;fontColor=#000000;align=center;arcSize=50;" parent="1" vertex="1">
          <mxGeometry x="1168" y="807.5" width="79" height="20" as="geometry"/>
        </mxCell>
        <mxCell id="CMPPMDgxON7yKhk_aNS9-124" value="&lt;span&gt;images&lt;br&gt;&lt;/span&gt;" style="whiteSpace=wrap;html=1;rounded=1;shadow=1;comic=0;labelBackgroundColor=none;strokeColor=#000000;strokeWidth=2;fillColor=#FFFFFF;fontFamily=Verdana;fontSize=12;fontColor=#000000;align=center;arcSize=50;" parent="1" vertex="1">
          <mxGeometry x="1284" y="748.5" width="78" height="23" as="geometry"/>
        </mxCell>
        <mxCell id="CMPPMDgxON7yKhk_aNS9-125" value="title" style="whiteSpace=wrap;html=1;rounded=1;shadow=1;comic=0;labelBackgroundColor=none;strokeColor=#000000;strokeWidth=2;fillColor=#FFFFFF;fontFamily=Verdana;fontSize=12;fontColor=#000000;align=center;arcSize=50;" parent="1" vertex="1">
          <mxGeometry x="1234.5" y="614.5" width="100" height="20" as="geometry"/>
        </mxCell>
        <mxCell id="CMPPMDgxON7yKhk_aNS9-126" value="PROCESSES" style="rhombus;whiteSpace=wrap;html=1;" parent="1" vertex="1">
          <mxGeometry x="1240" y="479.5" width="94" height="86" as="geometry"/>
        </mxCell>
        <mxCell id="CMPPMDgxON7yKhk_aNS9-127" style="edgeStyle=none;rounded=0;orthogonalLoop=1;jettySize=auto;html=1;exitX=1;exitY=0.5;exitDx=0;exitDy=0;entryX=0;entryY=0.5;entryDx=0;entryDy=0;entryPerimeter=0;startArrow=none;startFill=0;endArrow=ERzeroToMany;endFill=1;" parent="1" source="CMPPMDgxON7yKhk_aNS9-128" target="CMPPMDgxON7yKhk_aNS9-129" edge="1">
          <mxGeometry relative="1" as="geometry"/>
        </mxCell>
        <mxCell id="CMPPMDgxON7yKhk_aNS9-128" value="HAS" style="rhombus;whiteSpace=wrap;html=1;dashed=1;" parent="1" vertex="1">
          <mxGeometry x="1304.5" y="655" width="80" height="80" as="geometry"/>
        </mxCell>
        <mxCell id="CMPPMDgxON7yKhk_aNS9-129" value="" style="verticalLabelPosition=bottom;verticalAlign=top;html=1;shape=mxgraph.basic.frame;dx=10;" parent="1" vertex="1">
          <mxGeometry x="1432.5" y="660" width="114" height="70" as="geometry"/>
        </mxCell>
        <mxCell id="CMPPMDgxON7yKhk_aNS9-130" value="CATEGORIES" style="text;html=1;resizable=0;points=[];autosize=1;align=left;verticalAlign=top;spacingTop=-4;" parent="1" vertex="1">
          <mxGeometry x="1447.5" y="685" width="90" height="20" as="geometry"/>
        </mxCell>
        <mxCell id="CMPPMDgxON7yKhk_aNS9-131" style="edgeStyle=none;rounded=0;orthogonalLoop=1;jettySize=auto;html=1;exitX=0.25;exitY=0;exitDx=0;exitDy=0;entryX=0;entryY=0;entryDx=85.5;entryDy=70;entryPerimeter=0;startArrow=none;startFill=0;endArrow=none;endFill=0;" parent="1" source="CMPPMDgxON7yKhk_aNS9-132" target="CMPPMDgxON7yKhk_aNS9-129" edge="1">
          <mxGeometry relative="1" as="geometry"/>
        </mxCell>
        <mxCell id="CMPPMDgxON7yKhk_aNS9-132" value="&lt;span&gt;name&lt;/span&gt;" style="whiteSpace=wrap;html=1;rounded=1;shadow=1;comic=0;labelBackgroundColor=none;strokeColor=#000000;strokeWidth=2;fillColor=#FFFFFF;fontFamily=Verdana;fontSize=12;fontColor=#000000;align=center;arcSize=50;" parent="1" vertex="1">
          <mxGeometry x="1512" y="782.5" width="100" height="20" as="geometry"/>
        </mxCell>
        <mxCell id="CMPPMDgxON7yKhk_aNS9-133" style="edgeStyle=none;rounded=0;orthogonalLoop=1;jettySize=auto;html=1;exitX=0;exitY=0.5;exitDx=0;exitDy=0;entryX=0;entryY=0;entryDx=114;entryDy=52.5;entryPerimeter=0;startArrow=none;startFill=0;endArrow=none;endFill=0;" parent="1" source="CMPPMDgxON7yKhk_aNS9-134" target="CMPPMDgxON7yKhk_aNS9-129" edge="1">
          <mxGeometry relative="1" as="geometry"/>
        </mxCell>
        <mxCell id="CMPPMDgxON7yKhk_aNS9-134" value="&lt;span&gt;category_id&lt;/span&gt;" style="whiteSpace=wrap;html=1;rounded=1;shadow=1;comic=0;labelBackgroundColor=none;strokeColor=#6c8ebf;strokeWidth=2;fillColor=#dae8fc;fontFamily=Verdana;fontSize=12;align=center;arcSize=50;" parent="1" vertex="1">
          <mxGeometry x="1593" y="732.5" width="100" height="30" as="geometry"/>
        </mxCell>
        <mxCell id="CMPPMDgxON7yKhk_aNS9-135" style="edgeStyle=none;rounded=0;orthogonalLoop=1;jettySize=auto;html=1;exitX=0;exitY=0.5;exitDx=0;exitDy=0;entryX=0;entryY=0;entryDx=114;entryDy=17.5;entryPerimeter=0;startArrow=none;startFill=0;endArrow=none;endFill=0;" parent="1" source="CMPPMDgxON7yKhk_aNS9-136" target="CMPPMDgxON7yKhk_aNS9-129" edge="1">
          <mxGeometry relative="1" as="geometry"/>
        </mxCell>
        <mxCell id="CMPPMDgxON7yKhk_aNS9-136" value="&lt;span&gt;product_id&lt;/span&gt;" style="whiteSpace=wrap;html=1;rounded=1;shadow=1;comic=0;labelBackgroundColor=none;strokeColor=#d79b00;strokeWidth=2;fillColor=#ffe6cc;fontFamily=Verdana;fontSize=12;align=center;arcSize=50;" parent="1" vertex="1">
          <mxGeometry x="1593" y="667.5" width="100" height="20" as="geometry"/>
        </mxCell>
        <mxCell id="CMPPMDgxON7yKhk_aNS9-137" style="edgeStyle=none;rounded=0;orthogonalLoop=1;jettySize=auto;html=1;exitX=0.5;exitY=0;exitDx=0;exitDy=0;entryX=0.5;entryY=1;entryDx=0;entryDy=0;startArrow=none;startFill=0;endArrow=none;endFill=0;" parent="1" source="CMPPMDgxON7yKhk_aNS9-143" target="CMPPMDgxON7yKhk_aNS9-56" edge="1">
          <mxGeometry relative="1" as="geometry"/>
        </mxCell>
        <mxCell id="CMPPMDgxON7yKhk_aNS9-138" style="edgeStyle=none;rounded=0;orthogonalLoop=1;jettySize=auto;html=1;exitX=0.5;exitY=0;exitDx=0;exitDy=0;entryX=0.5;entryY=1;entryDx=0;entryDy=0;startArrow=none;startFill=0;endArrow=none;endFill=0;" parent="1" source="CMPPMDgxON7yKhk_aNS9-56" target="CMPPMDgxON7yKhk_aNS9-57" edge="1">
          <mxGeometry relative="1" as="geometry"/>
        </mxCell>
        <mxCell id="CMPPMDgxON7yKhk_aNS9-139" style="edgeStyle=none;rounded=0;orthogonalLoop=1;jettySize=auto;html=1;exitX=0.25;exitY=0;exitDx=0;exitDy=0;entryX=0.25;entryY=1;entryDx=0;entryDy=0;startArrow=none;startFill=0;endArrow=none;endFill=0;" parent="1" source="CMPPMDgxON7yKhk_aNS9-143" target="CMPPMDgxON7yKhk_aNS9-55" edge="1">
          <mxGeometry relative="1" as="geometry"/>
        </mxCell>
        <mxCell id="CMPPMDgxON7yKhk_aNS9-140" style="edgeStyle=none;rounded=0;orthogonalLoop=1;jettySize=auto;html=1;exitX=1;exitY=0.25;exitDx=0;exitDy=0;entryX=0.25;entryY=1;entryDx=0;entryDy=0;startArrow=none;startFill=0;endArrow=none;endFill=0;" parent="1" source="CMPPMDgxON7yKhk_aNS9-143" target="4p4MBh4yowYJrrC4Kuk--1" edge="1">
          <mxGeometry relative="1" as="geometry">
            <mxPoint x="1933.6446609406735" y="195.2132034355966" as="targetPoint"/>
          </mxGeometry>
        </mxCell>
        <mxCell id="CMPPMDgxON7yKhk_aNS9-141" style="edgeStyle=none;rounded=0;orthogonalLoop=1;jettySize=auto;html=1;exitX=1;exitY=0.75;exitDx=0;exitDy=0;entryX=0;entryY=0.5;entryDx=0;entryDy=0;startArrow=ERoneToMany;startFill=0;endArrow=none;endFill=0;" parent="1" source="CMPPMDgxON7yKhk_aNS9-143" target="CMPPMDgxON7yKhk_aNS9-77" edge="1">
          <mxGeometry relative="1" as="geometry"/>
        </mxCell>
        <mxCell id="CMPPMDgxON7yKhk_aNS9-142" style="edgeStyle=none;rounded=0;orthogonalLoop=1;jettySize=auto;html=1;exitX=0.75;exitY=1;exitDx=0;exitDy=0;entryX=0.5;entryY=0;entryDx=0;entryDy=0;startArrow=none;startFill=0;endArrow=none;endFill=0;" parent="1" source="CMPPMDgxON7yKhk_aNS9-143" target="CMPPMDgxON7yKhk_aNS9-202" edge="1">
          <mxGeometry relative="1" as="geometry">
            <mxPoint x="1559" y="422.5" as="targetPoint"/>
          </mxGeometry>
        </mxCell>
        <mxCell id="CMPPMDgxON7yKhk_aNS9-143" value="EMPLOYEE" style="rounded=0;whiteSpace=wrap;html=1;" parent="1" vertex="1">
          <mxGeometry x="1429.5" y="300.5" width="120" height="60" as="geometry"/>
        </mxCell>
        <mxCell id="CMPPMDgxON7yKhk_aNS9-144" style="edgeStyle=none;rounded=0;orthogonalLoop=1;jettySize=auto;html=1;exitX=0;exitY=0;exitDx=28.5;exitDy=70;exitPerimeter=0;entryX=0.5;entryY=0;entryDx=0;entryDy=0;startArrow=ERzeroToMany;startFill=1;endArrow=classic;endFill=1;" parent="1" source="CMPPMDgxON7yKhk_aNS9-146" target="CMPPMDgxON7yKhk_aNS9-53" edge="1">
          <mxGeometry relative="1" as="geometry"/>
        </mxCell>
        <mxCell id="CMPPMDgxON7yKhk_aNS9-145" style="edgeStyle=none;rounded=0;orthogonalLoop=1;jettySize=auto;html=1;exitX=1;exitY=0.5;exitDx=0;exitDy=0;exitPerimeter=0;entryX=0;entryY=0.5;entryDx=0;entryDy=0;startArrow=ERzeroToMany;startFill=1;endArrow=none;endFill=0;" parent="1" source="CMPPMDgxON7yKhk_aNS9-146" target="CMPPMDgxON7yKhk_aNS9-149" edge="1">
          <mxGeometry relative="1" as="geometry"/>
        </mxCell>
        <mxCell id="CMPPMDgxON7yKhk_aNS9-146" value="" style="verticalLabelPosition=bottom;verticalAlign=top;html=1;shape=mxgraph.basic.frame;dx=10;" parent="1" vertex="1">
          <mxGeometry x="1015.5" y="135" width="114" height="70" as="geometry"/>
        </mxCell>
        <mxCell id="CMPPMDgxON7yKhk_aNS9-147" value="ORDER" style="text;html=1;resizable=0;points=[];autosize=1;align=left;verticalAlign=top;spacingTop=-4;" parent="1" vertex="1">
          <mxGeometry x="1047.5" y="160" width="60" height="20" as="geometry"/>
        </mxCell>
        <mxCell id="CMPPMDgxON7yKhk_aNS9-148" style="edgeStyle=none;rounded=0;orthogonalLoop=1;jettySize=auto;html=1;exitX=1;exitY=0.5;exitDx=0;exitDy=0;startArrow=classic;startFill=1;endArrow=ERmandOne;endFill=0;" parent="1" source="CMPPMDgxON7yKhk_aNS9-149" edge="1">
          <mxGeometry relative="1" as="geometry">
            <mxPoint x="1428" y="300" as="targetPoint"/>
          </mxGeometry>
        </mxCell>
        <mxCell id="CMPPMDgxON7yKhk_aNS9-149" value="PROCESSES" style="rhombus;whiteSpace=wrap;html=1;" parent="1" vertex="1">
          <mxGeometry x="1230" y="150" width="88" height="85" as="geometry"/>
        </mxCell>
        <mxCell id="CMPPMDgxON7yKhk_aNS9-150" style="edgeStyle=none;rounded=0;orthogonalLoop=1;jettySize=auto;html=1;exitX=0.75;exitY=1;exitDx=0;exitDy=0;entryX=0;entryY=0.5;entryDx=0;entryDy=0;startArrow=none;startFill=0;endArrow=none;endFill=0;" parent="1" source="CMPPMDgxON7yKhk_aNS9-151" target="4p4MBh4yowYJrrC4Kuk--1" edge="1">
          <mxGeometry relative="1" as="geometry">
            <mxPoint x="1919" y="174" as="targetPoint"/>
          </mxGeometry>
        </mxCell>
        <mxCell id="CMPPMDgxON7yKhk_aNS9-151" value="&lt;span&gt;country&lt;/span&gt;" style="whiteSpace=wrap;html=1;rounded=1;shadow=1;comic=0;labelBackgroundColor=none;strokeColor=#000000;strokeWidth=2;fillColor=#FFFFFF;fontFamily=Verdana;fontSize=12;fontColor=#000000;align=center;arcSize=50;dashed=1;dashPattern=1 1;" parent="1" vertex="1">
          <mxGeometry x="1756" y="87.5" width="100" height="20" as="geometry"/>
        </mxCell>
        <mxCell id="CMPPMDgxON7yKhk_aNS9-152" style="edgeStyle=none;rounded=0;orthogonalLoop=1;jettySize=auto;html=1;exitX=0;exitY=0.5;exitDx=0;exitDy=0;startArrow=none;startFill=0;endArrow=none;endFill=0;" parent="1" source="CMPPMDgxON7yKhk_aNS9-153" edge="1">
          <mxGeometry relative="1" as="geometry">
            <mxPoint x="2010" y="160" as="targetPoint"/>
          </mxGeometry>
        </mxCell>
        <mxCell id="CMPPMDgxON7yKhk_aNS9-153" value="&lt;span&gt;house/apt No.&lt;/span&gt;" style="whiteSpace=wrap;html=1;rounded=1;shadow=1;comic=0;labelBackgroundColor=none;strokeColor=#000000;strokeWidth=2;fillColor=#FFFFFF;fontFamily=Verdana;fontSize=12;fontColor=#000000;align=center;arcSize=50;dashed=1;dashPattern=1 1;" parent="1" vertex="1">
          <mxGeometry x="2100" y="137" width="100" height="20" as="geometry"/>
        </mxCell>
        <mxCell id="CMPPMDgxON7yKhk_aNS9-154" style="edgeStyle=none;rounded=0;orthogonalLoop=1;jettySize=auto;html=1;exitX=0.25;exitY=1;exitDx=0;exitDy=0;entryX=0.5;entryY=0;entryDx=0;entryDy=0;startArrow=none;startFill=0;endArrow=none;endFill=0;" parent="1" source="CMPPMDgxON7yKhk_aNS9-155" target="4p4MBh4yowYJrrC4Kuk--1" edge="1">
          <mxGeometry relative="1" as="geometry">
            <mxPoint x="1969" y="144.0000000000001" as="targetPoint"/>
          </mxGeometry>
        </mxCell>
        <mxCell id="CMPPMDgxON7yKhk_aNS9-155" value="town" style="whiteSpace=wrap;html=1;rounded=1;shadow=1;comic=0;labelBackgroundColor=none;strokeColor=#000000;strokeWidth=2;fillColor=#FFFFFF;fontFamily=Verdana;fontSize=12;fontColor=#000000;align=center;arcSize=50;dashed=1;dashPattern=1 1;" parent="1" vertex="1">
          <mxGeometry x="1991" y="45" width="100" height="20" as="geometry"/>
        </mxCell>
        <mxCell id="CMPPMDgxON7yKhk_aNS9-156" value="&lt;span&gt;street&lt;/span&gt;" style="whiteSpace=wrap;html=1;rounded=1;shadow=1;comic=0;labelBackgroundColor=none;strokeColor=#000000;strokeWidth=2;fillColor=#FFFFFF;fontFamily=Verdana;fontSize=12;fontColor=#000000;align=center;arcSize=50;dashed=1;dashPattern=1 1;" parent="1" vertex="1">
          <mxGeometry x="2056" y="87.5" width="100" height="20" as="geometry"/>
        </mxCell>
        <mxCell id="CMPPMDgxON7yKhk_aNS9-157" style="edgeStyle=none;rounded=0;orthogonalLoop=1;jettySize=auto;html=1;exitX=0.25;exitY=1;exitDx=0;exitDy=0;entryX=0.143;entryY=-0.008;entryDx=0;entryDy=0;startArrow=none;startFill=0;endArrow=none;endFill=0;entryPerimeter=0;" parent="1" source="CMPPMDgxON7yKhk_aNS9-158" target="4p4MBh4yowYJrrC4Kuk--1" edge="1">
          <mxGeometry relative="1" as="geometry">
            <mxPoint x="1933.6446609406735" y="152.78679656440386" as="targetPoint"/>
          </mxGeometry>
        </mxCell>
        <mxCell id="CMPPMDgxON7yKhk_aNS9-158" value="&lt;span&gt;city&lt;/span&gt;" style="whiteSpace=wrap;html=1;rounded=1;shadow=1;comic=0;labelBackgroundColor=none;strokeColor=#000000;strokeWidth=2;fillColor=#FFFFFF;fontFamily=Verdana;fontSize=12;fontColor=#000000;align=center;arcSize=50;dashed=1;dashPattern=1 1;" parent="1" vertex="1">
          <mxGeometry x="1876" y="55" width="100" height="20" as="geometry"/>
        </mxCell>
        <mxCell id="CMPPMDgxON7yKhk_aNS9-159" style="edgeStyle=none;rounded=0;orthogonalLoop=1;jettySize=auto;html=1;exitX=0.5;exitY=0;exitDx=0;exitDy=0;entryX=0.25;entryY=1;entryDx=0;entryDy=0;startArrow=none;startFill=0;endArrow=none;endFill=0;" parent="1" source="CMPPMDgxON7yKhk_aNS9-160" target="CMPPMDgxON7yKhk_aNS9-143" edge="1">
          <mxGeometry relative="1" as="geometry"/>
        </mxCell>
        <mxCell id="CMPPMDgxON7yKhk_aNS9-160" value="position" style="whiteSpace=wrap;html=1;rounded=1;shadow=1;comic=0;labelBackgroundColor=none;strokeColor=#000000;strokeWidth=2;fillColor=#FFFFFF;fontFamily=Verdana;fontSize=12;fontColor=#000000;align=center;arcSize=50;" parent="1" vertex="1">
          <mxGeometry x="1375.5" y="456.5" width="100" height="20" as="geometry"/>
        </mxCell>
        <mxCell id="CMPPMDgxON7yKhk_aNS9-161" style="edgeStyle=none;rounded=0;orthogonalLoop=1;jettySize=auto;html=1;exitX=0.5;exitY=0;exitDx=0;exitDy=0;startArrow=none;startFill=0;endArrow=none;endFill=0;" parent="1" source="CMPPMDgxON7yKhk_aNS9-162" target="CMPPMDgxON7yKhk_aNS9-143" edge="1">
          <mxGeometry relative="1" as="geometry"/>
        </mxCell>
        <mxCell id="CMPPMDgxON7yKhk_aNS9-162" value="employee_id" style="whiteSpace=wrap;html=1;rounded=1;shadow=1;comic=0;labelBackgroundColor=none;strokeColor=#6c8ebf;strokeWidth=2;fillColor=#dae8fc;fontFamily=Verdana;fontSize=12;align=center;arcSize=50;" parent="1" vertex="1">
          <mxGeometry x="1439.5" y="502.5" width="100" height="20" as="geometry"/>
        </mxCell>
        <mxCell id="CMPPMDgxON7yKhk_aNS9-163" style="edgeStyle=none;rounded=0;orthogonalLoop=1;jettySize=auto;html=1;exitX=0.5;exitY=0;exitDx=0;exitDy=0;entryX=0.5;entryY=1;entryDx=0;entryDy=0;startArrow=none;startFill=0;endArrow=none;endFill=0;" parent="1" source="CMPPMDgxON7yKhk_aNS9-164" target="CMPPMDgxON7yKhk_aNS9-143" edge="1">
          <mxGeometry relative="1" as="geometry"/>
        </mxCell>
        <mxCell id="CMPPMDgxON7yKhk_aNS9-164" value="salary" style="whiteSpace=wrap;html=1;rounded=1;shadow=1;comic=0;labelBackgroundColor=none;strokeColor=#000000;strokeWidth=2;fillColor=#FFFFFF;fontFamily=Verdana;fontSize=12;fontColor=#000000;align=center;arcSize=50;" parent="1" vertex="1">
          <mxGeometry x="1514" y="470" width="71" height="20" as="geometry"/>
        </mxCell>
        <mxCell id="CMPPMDgxON7yKhk_aNS9-165" style="edgeStyle=none;rounded=0;orthogonalLoop=1;jettySize=auto;html=1;exitX=0.5;exitY=0;exitDx=0;exitDy=0;exitPerimeter=0;entryX=0.5;entryY=1;entryDx=0;entryDy=0;startArrow=none;startFill=0;endArrow=none;endFill=0;" parent="1" source="CMPPMDgxON7yKhk_aNS9-166" target="CMPPMDgxON7yKhk_aNS9-168" edge="1">
          <mxGeometry relative="1" as="geometry"/>
        </mxCell>
        <mxCell id="CMPPMDgxON7yKhk_aNS9-166" value="" style="verticalLabelPosition=bottom;verticalAlign=top;html=1;shape=mxgraph.basic.frame;dx=10;" parent="1" vertex="1">
          <mxGeometry x="1919" y="445" width="114" height="70" as="geometry"/>
        </mxCell>
        <mxCell id="CMPPMDgxON7yKhk_aNS9-167" value="WAGES" style="text;html=1;resizable=0;points=[];autosize=1;align=left;verticalAlign=top;spacingTop=-4;" parent="1" vertex="1">
          <mxGeometry x="1947" y="473" width="60" height="20" as="geometry"/>
        </mxCell>
        <mxCell id="CMPPMDgxON7yKhk_aNS9-168" value="bonuses" style="whiteSpace=wrap;html=1;rounded=1;shadow=1;comic=0;labelBackgroundColor=none;strokeColor=#000000;strokeWidth=2;fillColor=#FFFFFF;fontFamily=Verdana;fontSize=12;fontColor=#000000;align=center;arcSize=50;" parent="1" vertex="1">
          <mxGeometry x="1941" y="394" width="100" height="20" as="geometry"/>
        </mxCell>
        <mxCell id="CMPPMDgxON7yKhk_aNS9-169" value="" style="rounded=0;whiteSpace=wrap;html=1;strokeWidth=3;" parent="1" vertex="1">
          <mxGeometry x="1707" y="853" width="653" height="328" as="geometry"/>
        </mxCell>
        <mxCell id="CMPPMDgxON7yKhk_aNS9-170" value="&lt;font style=&quot;font-size: 22px&quot;&gt;KEYS&lt;/font&gt;" style="text;html=1;strokeColor=none;fillColor=none;align=center;verticalAlign=middle;whiteSpace=wrap;rounded=0;dashed=1;dashPattern=1 1;" parent="1" vertex="1">
          <mxGeometry x="1986" y="880" width="40" height="20" as="geometry"/>
        </mxCell>
        <mxCell id="CMPPMDgxON7yKhk_aNS9-171" value="" style="verticalLabelPosition=bottom;verticalAlign=top;html=1;shape=mxgraph.basic.frame;dx=10;" parent="1" vertex="1">
          <mxGeometry x="2104" y="920" width="114" height="70" as="geometry"/>
        </mxCell>
        <mxCell id="CMPPMDgxON7yKhk_aNS9-172" value="WEAK ENTITY" style="text;html=1;resizable=0;points=[];autosize=1;align=left;verticalAlign=top;spacingTop=-4;" parent="1" vertex="1">
          <mxGeometry x="2121" y="945" width="100" height="20" as="geometry"/>
        </mxCell>
        <mxCell id="CMPPMDgxON7yKhk_aNS9-173" value="STRONG RELATIONSHIP" style="rhombus;whiteSpace=wrap;html=1;" parent="1" vertex="1">
          <mxGeometry x="1726" y="902.5" width="114" height="105" as="geometry"/>
        </mxCell>
        <mxCell id="CMPPMDgxON7yKhk_aNS9-174" value="STRONG ENTITY" style="rounded=0;whiteSpace=wrap;html=1;" parent="1" vertex="1">
          <mxGeometry x="1961" y="925" width="120" height="60" as="geometry"/>
        </mxCell>
        <mxCell id="CMPPMDgxON7yKhk_aNS9-175" value="&lt;span&gt;primary key&lt;/span&gt;" style="whiteSpace=wrap;html=1;rounded=1;shadow=1;comic=0;labelBackgroundColor=none;strokeColor=#6c8ebf;strokeWidth=2;fillColor=#dae8fc;fontFamily=Verdana;fontSize=12;align=center;arcSize=50;" parent="1" vertex="1">
          <mxGeometry x="2240" y="887.5" width="100" height="30" as="geometry"/>
        </mxCell>
        <mxCell id="CMPPMDgxON7yKhk_aNS9-176" value="WEAK RELATIONSHIP" style="rhombus;whiteSpace=wrap;html=1;dashed=1;" parent="1" vertex="1">
          <mxGeometry x="1846" y="902.5" width="106" height="105" as="geometry"/>
        </mxCell>
        <mxCell id="CMPPMDgxON7yKhk_aNS9-177" style="edgeStyle=none;rounded=0;orthogonalLoop=1;jettySize=auto;html=1;exitX=1;exitY=0.5;exitDx=0;exitDy=0;exitPerimeter=0;entryX=0;entryY=0.5;entryDx=0;entryDy=0;startArrow=none;startFill=0;endArrow=none;endFill=0;" parent="1" source="CMPPMDgxON7yKhk_aNS9-179" target="CMPPMDgxON7yKhk_aNS9-181" edge="1">
          <mxGeometry relative="1" as="geometry"/>
        </mxCell>
        <mxCell id="CMPPMDgxON7yKhk_aNS9-178" style="edgeStyle=none;rounded=0;orthogonalLoop=1;jettySize=auto;html=1;exitX=0;exitY=0;exitDx=118;exitDy=18.5;exitPerimeter=0;entryX=0;entryY=0.75;entryDx=0;entryDy=0;startArrow=none;startFill=0;endArrow=none;endFill=0;" parent="1" source="CMPPMDgxON7yKhk_aNS9-179" target="CMPPMDgxON7yKhk_aNS9-212" edge="1">
          <mxGeometry relative="1" as="geometry"/>
        </mxCell>
        <mxCell id="CMPPMDgxON7yKhk_aNS9-179" value="" style="verticalLabelPosition=bottom;verticalAlign=top;html=1;shape=mxgraph.basic.frame;dx=10;" parent="1" vertex="1">
          <mxGeometry x="1018.5" y="443.5" width="118" height="74" as="geometry"/>
        </mxCell>
        <mxCell id="CMPPMDgxON7yKhk_aNS9-180" value="SHIPPING&lt;br&gt;COMPANY" style="text;html=1;strokeColor=none;fillColor=none;align=center;verticalAlign=middle;whiteSpace=wrap;rounded=0;dashed=1;" parent="1" vertex="1">
          <mxGeometry x="1041.5" y="461.5" width="69" height="35" as="geometry"/>
        </mxCell>
        <mxCell id="CMPPMDgxON7yKhk_aNS9-181" value="&lt;span&gt;company name&lt;/span&gt;" style="whiteSpace=wrap;html=1;rounded=1;shadow=1;comic=0;labelBackgroundColor=none;strokeColor=#000000;strokeWidth=2;fillColor=#FFFFFF;fontFamily=Verdana;fontSize=12;fontColor=#000000;align=center;arcSize=50;" parent="1" vertex="1">
          <mxGeometry x="1171" y="460.5" width="100" height="20" as="geometry"/>
        </mxCell>
        <mxCell id="CMPPMDgxON7yKhk_aNS9-182" value="&lt;span&gt;foreign key&lt;/span&gt;" style="whiteSpace=wrap;html=1;rounded=1;shadow=1;comic=0;labelBackgroundColor=none;strokeColor=#d79b00;strokeWidth=2;fillColor=#ffe6cc;fontFamily=Verdana;fontSize=12;align=center;arcSize=50;" parent="1" vertex="1">
          <mxGeometry x="2240" y="950" width="100" height="30" as="geometry"/>
        </mxCell>
        <mxCell id="CMPPMDgxON7yKhk_aNS9-183" style="edgeStyle=none;rounded=0;orthogonalLoop=1;jettySize=auto;html=1;exitX=1;exitY=1;exitDx=0;exitDy=0;exitPerimeter=0;entryX=0.142;entryY=0.035;entryDx=0;entryDy=0;entryPerimeter=0;startArrow=none;startFill=0;endArrow=none;endFill=0;" parent="1" source="CMPPMDgxON7yKhk_aNS9-184" target="CMPPMDgxON7yKhk_aNS9-213" edge="1">
          <mxGeometry relative="1" as="geometry"/>
        </mxCell>
        <mxCell id="CMPPMDgxON7yKhk_aNS9-184" value="" style="verticalLabelPosition=bottom;verticalAlign=top;html=1;shape=mxgraph.basic.frame;dx=10;" parent="1" vertex="1">
          <mxGeometry x="640" y="740" width="113" height="70" as="geometry"/>
        </mxCell>
        <mxCell id="CMPPMDgxON7yKhk_aNS9-185" value="SUPPLIER" style="text;html=1;strokeColor=none;fillColor=none;align=center;verticalAlign=middle;whiteSpace=wrap;rounded=0;dashed=1;" parent="1" vertex="1">
          <mxGeometry x="659" y="754" width="69" height="35" as="geometry"/>
        </mxCell>
        <mxCell id="CMPPMDgxON7yKhk_aNS9-186" style="edgeStyle=none;rounded=0;orthogonalLoop=1;jettySize=auto;html=1;exitX=0.75;exitY=0;exitDx=0;exitDy=0;entryX=0;entryY=1;entryDx=0;entryDy=0;entryPerimeter=0;startArrow=none;startFill=0;endArrow=none;endFill=0;" parent="1" source="CMPPMDgxON7yKhk_aNS9-187" target="CMPPMDgxON7yKhk_aNS9-184" edge="1">
          <mxGeometry relative="1" as="geometry"/>
        </mxCell>
        <mxCell id="CMPPMDgxON7yKhk_aNS9-187" value="&lt;span&gt;supplier_id&lt;/span&gt;" style="whiteSpace=wrap;html=1;rounded=1;shadow=1;comic=0;labelBackgroundColor=none;strokeColor=#6c8ebf;strokeWidth=2;fillColor=#dae8fc;fontFamily=Verdana;fontSize=12;align=center;arcSize=50;" parent="1" vertex="1">
          <mxGeometry x="500" y="844" width="100" height="33" as="geometry"/>
        </mxCell>
        <mxCell id="CMPPMDgxON7yKhk_aNS9-188" style="edgeStyle=none;rounded=0;orthogonalLoop=1;jettySize=auto;html=1;entryX=0.5;entryY=1;entryDx=0;entryDy=0;entryPerimeter=0;startArrow=none;startFill=0;endArrow=none;endFill=0;" parent="1" source="CMPPMDgxON7yKhk_aNS9-189" target="CMPPMDgxON7yKhk_aNS9-184" edge="1">
          <mxGeometry relative="1" as="geometry"/>
        </mxCell>
        <mxCell id="CMPPMDgxON7yKhk_aNS9-189" value="&lt;span&gt;company name&lt;/span&gt;" style="whiteSpace=wrap;html=1;rounded=1;shadow=1;comic=0;labelBackgroundColor=none;strokeColor=#000000;strokeWidth=2;fillColor=#FFFFFF;fontFamily=Verdana;fontSize=12;fontColor=#000000;align=center;arcSize=50;" parent="1" vertex="1">
          <mxGeometry x="643.5" y="870" width="100" height="20" as="geometry"/>
        </mxCell>
        <mxCell id="CMPPMDgxON7yKhk_aNS9-190" style="edgeStyle=none;rounded=0;orthogonalLoop=1;jettySize=auto;html=1;exitX=0;exitY=0.5;exitDx=0;exitDy=0;entryX=0.992;entryY=0.434;entryDx=0;entryDy=0;entryPerimeter=0;startArrow=none;startFill=0;endArrow=ERmandOne;endFill=0;" parent="1" source="CMPPMDgxON7yKhk_aNS9-192" target="CMPPMDgxON7yKhk_aNS9-184" edge="1">
          <mxGeometry relative="1" as="geometry"/>
        </mxCell>
        <mxCell id="CMPPMDgxON7yKhk_aNS9-191" style="edgeStyle=none;rounded=0;orthogonalLoop=1;jettySize=auto;html=1;exitX=1;exitY=0.5;exitDx=0;exitDy=0;entryX=0;entryY=0.75;entryDx=0;entryDy=0;startArrow=classic;startFill=1;endArrow=ERzeroToMany;endFill=1;" parent="1" source="CMPPMDgxON7yKhk_aNS9-192" target="CMPPMDgxON7yKhk_aNS9-109" edge="1">
          <mxGeometry relative="1" as="geometry"/>
        </mxCell>
        <mxCell id="CMPPMDgxON7yKhk_aNS9-192" value="SUPPLIED BY" style="rhombus;whiteSpace=wrap;html=1;dashed=1;" parent="1" vertex="1">
          <mxGeometry x="825.5" y="722.5" width="80" height="80" as="geometry"/>
        </mxCell>
        <mxCell id="CMPPMDgxON7yKhk_aNS9-193" style="edgeStyle=none;rounded=0;orthogonalLoop=1;jettySize=auto;html=1;exitX=0.5;exitY=1;exitDx=0;exitDy=0;startArrow=none;startFill=0;endArrow=none;endFill=0;" parent="1" source="CMPPMDgxON7yKhk_aNS9-194" target="CMPPMDgxON7yKhk_aNS9-27" edge="1">
          <mxGeometry relative="1" as="geometry"/>
        </mxCell>
        <mxCell id="CMPPMDgxON7yKhk_aNS9-194" value="&lt;span&gt;email&lt;/span&gt;" style="whiteSpace=wrap;html=1;rounded=1;shadow=1;comic=0;labelBackgroundColor=none;strokeColor=#000000;strokeWidth=2;fillColor=#FFFFFF;fontFamily=Verdana;fontSize=12;fontColor=#000000;align=center;arcSize=50;" parent="1" vertex="1">
          <mxGeometry x="440" y="40" width="100" height="20" as="geometry"/>
        </mxCell>
        <mxCell id="CMPPMDgxON7yKhk_aNS9-195" style="edgeStyle=none;rounded=0;orthogonalLoop=1;jettySize=auto;html=1;exitX=0.5;exitY=1;exitDx=0;exitDy=0;startArrow=none;startFill=0;endArrow=none;endFill=0;" parent="1" source="CMPPMDgxON7yKhk_aNS9-196" target="CMPPMDgxON7yKhk_aNS9-27" edge="1">
          <mxGeometry relative="1" as="geometry"/>
        </mxCell>
        <mxCell id="CMPPMDgxON7yKhk_aNS9-196" value="&lt;span&gt;phone&lt;/span&gt;" style="whiteSpace=wrap;html=1;rounded=1;shadow=1;comic=0;labelBackgroundColor=none;strokeColor=#000000;strokeWidth=2;fillColor=#FFFFFF;fontFamily=Verdana;fontSize=12;fontColor=#000000;align=center;arcSize=50;" parent="1" vertex="1">
          <mxGeometry x="523" y="72.5" width="100" height="20" as="geometry"/>
        </mxCell>
        <mxCell id="CMPPMDgxON7yKhk_aNS9-197" style="edgeStyle=none;rounded=0;orthogonalLoop=1;jettySize=auto;html=1;exitX=0.75;exitY=1;exitDx=0;exitDy=0;entryX=0.5;entryY=0;entryDx=0;entryDy=0;startArrow=none;startFill=0;endArrow=none;endFill=0;" parent="1" source="CMPPMDgxON7yKhk_aNS9-199" target="CMPPMDgxON7yKhk_aNS9-41" edge="1">
          <mxGeometry relative="1" as="geometry">
            <mxPoint x="380.75" y="355" as="sourcePoint"/>
          </mxGeometry>
        </mxCell>
        <mxCell id="CMPPMDgxON7yKhk_aNS9-198" style="edgeStyle=none;rounded=0;orthogonalLoop=1;jettySize=auto;html=1;exitX=0.75;exitY=0;exitDx=0;exitDy=0;entryX=0.003;entryY=0.98;entryDx=0;entryDy=0;entryPerimeter=0;startArrow=none;startFill=0;endArrow=none;endFill=0;" parent="1" source="CMPPMDgxON7yKhk_aNS9-199" target="CMPPMDgxON7yKhk_aNS9-27" edge="1">
          <mxGeometry relative="1" as="geometry"/>
        </mxCell>
        <mxCell id="CMPPMDgxON7yKhk_aNS9-199" value="payment details" style="whiteSpace=wrap;html=1;rounded=1;shadow=1;comic=0;labelBackgroundColor=none;strokeColor=#000000;strokeWidth=2;fillColor=#FFFFFF;fontFamily=Verdana;fontSize=12;fontColor=#000000;align=center;arcSize=50;" parent="1" vertex="1">
          <mxGeometry x="310" y="286.5" width="110" height="31" as="geometry"/>
        </mxCell>
        <mxCell id="CMPPMDgxON7yKhk_aNS9-202" value="bank account details" style="whiteSpace=wrap;html=1;rounded=1;shadow=1;comic=0;labelBackgroundColor=none;strokeColor=#000000;strokeWidth=2;fillColor=#FFFFFF;fontFamily=Verdana;fontSize=12;fontColor=#000000;align=center;arcSize=50;" parent="1" vertex="1">
          <mxGeometry x="1602" y="492.5" width="100" height="40" as="geometry"/>
        </mxCell>
        <mxCell id="CMPPMDgxON7yKhk_aNS9-203" style="edgeStyle=none;rounded=0;orthogonalLoop=1;jettySize=auto;html=1;exitX=1;exitY=0.5;exitDx=0;exitDy=0;entryX=0;entryY=0.5;entryDx=0;entryDy=0;entryPerimeter=0;startArrow=none;startFill=0;endArrow=none;endFill=0;" parent="1" source="CMPPMDgxON7yKhk_aNS9-204" target="CMPPMDgxON7yKhk_aNS9-184" edge="1">
          <mxGeometry relative="1" as="geometry"/>
        </mxCell>
        <mxCell id="CMPPMDgxON7yKhk_aNS9-204" value="&amp;nbsp;product_id" style="whiteSpace=wrap;html=1;rounded=1;shadow=1;comic=0;labelBackgroundColor=none;strokeColor=#d79b00;strokeWidth=2;fillColor=#ffe6cc;fontFamily=Verdana;fontSize=12;align=center;arcSize=50;" parent="1" vertex="1">
          <mxGeometry x="488" y="745" width="100" height="30" as="geometry"/>
        </mxCell>
        <mxCell id="CMPPMDgxON7yKhk_aNS9-205" style="edgeStyle=none;rounded=0;orthogonalLoop=1;jettySize=auto;html=1;exitX=0.5;exitY=1;exitDx=0;exitDy=0;entryX=0.25;entryY=1;entryDx=0;entryDy=0;startArrow=none;startFill=0;endArrow=none;endFill=0;" parent="1" source="CMPPMDgxON7yKhk_aNS9-124" target="CMPPMDgxON7yKhk_aNS9-124" edge="1">
          <mxGeometry relative="1" as="geometry"/>
        </mxCell>
        <mxCell id="CMPPMDgxON7yKhk_aNS9-206" style="edgeStyle=none;rounded=0;orthogonalLoop=1;jettySize=auto;html=1;exitX=1;exitY=0.5;exitDx=0;exitDy=0;entryX=0;entryY=0.75;entryDx=0;entryDy=0;startArrow=none;startFill=0;endArrow=none;endFill=0;" parent="1" source="CMPPMDgxON7yKhk_aNS9-207" target="CMPPMDgxON7yKhk_aNS9-143" edge="1">
          <mxGeometry relative="1" as="geometry"/>
        </mxCell>
        <mxCell id="CMPPMDgxON7yKhk_aNS9-207" value="hours" style="whiteSpace=wrap;html=1;rounded=1;shadow=1;comic=0;labelBackgroundColor=none;strokeColor=#000000;strokeWidth=2;fillColor=#FFFFFF;fontFamily=Verdana;fontSize=12;fontColor=#000000;align=center;arcSize=50;" parent="1" vertex="1">
          <mxGeometry x="1284" y="340.5" width="100" height="20" as="geometry"/>
        </mxCell>
        <mxCell id="CMPPMDgxON7yKhk_aNS9-208" style="edgeStyle=none;rounded=0;orthogonalLoop=1;jettySize=auto;html=1;exitX=1;exitY=0.75;exitDx=0;exitDy=0;startArrow=none;startFill=0;endArrow=none;endFill=0;" parent="1" source="CMPPMDgxON7yKhk_aNS9-209" target="CMPPMDgxON7yKhk_aNS9-143" edge="1">
          <mxGeometry relative="1" as="geometry"/>
        </mxCell>
        <mxCell id="CMPPMDgxON7yKhk_aNS9-209" value="holidays" style="whiteSpace=wrap;html=1;rounded=1;shadow=1;comic=0;labelBackgroundColor=none;strokeColor=#000000;strokeWidth=2;fillColor=#FFFFFF;fontFamily=Verdana;fontSize=12;fontColor=#000000;align=center;arcSize=50;" parent="1" vertex="1">
          <mxGeometry x="1271" y="285" width="100" height="20" as="geometry"/>
        </mxCell>
        <mxCell id="CMPPMDgxON7yKhk_aNS9-210" style="edgeStyle=none;rounded=0;orthogonalLoop=1;jettySize=auto;html=1;exitX=1;exitY=0.5;exitDx=0;exitDy=0;entryX=0;entryY=0.25;entryDx=0;entryDy=0;startArrow=none;startFill=0;endArrow=none;endFill=0;" parent="1" source="CMPPMDgxON7yKhk_aNS9-211" target="CMPPMDgxON7yKhk_aNS9-109" edge="1">
          <mxGeometry relative="1" as="geometry"/>
        </mxCell>
        <mxCell id="CMPPMDgxON7yKhk_aNS9-211" value="&lt;span&gt;supply date&lt;/span&gt;" style="whiteSpace=wrap;html=1;rounded=1;shadow=1;comic=0;labelBackgroundColor=none;strokeColor=#000000;strokeWidth=2;fillColor=#FFFFFF;fontFamily=Verdana;fontSize=12;fontColor=#000000;align=center;arcSize=50;" parent="1" vertex="1">
          <mxGeometry x="850" y="677.2646484375" width="100" height="20" as="geometry"/>
        </mxCell>
        <mxCell id="CMPPMDgxON7yKhk_aNS9-212" value="&lt;span&gt;phone&lt;/span&gt;" style="whiteSpace=wrap;html=1;rounded=1;shadow=1;comic=0;labelBackgroundColor=none;strokeColor=#000000;strokeWidth=2;fillColor=#FFFFFF;fontFamily=Verdana;fontSize=12;fontColor=#000000;align=center;arcSize=50;" parent="1" vertex="1">
          <mxGeometry x="1174" y="423.58824965533086" width="100" height="20" as="geometry"/>
        </mxCell>
        <mxCell id="CMPPMDgxON7yKhk_aNS9-213" value="&lt;span&gt;phone&lt;/span&gt;" style="whiteSpace=wrap;html=1;rounded=1;shadow=1;comic=0;labelBackgroundColor=none;strokeColor=#000000;strokeWidth=2;fillColor=#FFFFFF;fontFamily=Verdana;fontSize=12;fontColor=#000000;align=center;arcSize=50;" parent="1" vertex="1">
          <mxGeometry x="775.5" y="840.5882496553309" width="100" height="20" as="geometry"/>
        </mxCell>
        <mxCell id="CMPPMDgxON7yKhk_aNS9-214" value="derived" style="ellipse;shape=doubleEllipse;whiteSpace=wrap;html=1;" parent="1" vertex="1">
          <mxGeometry x="1733" y="1020" width="100" height="60" as="geometry"/>
        </mxCell>
        <mxCell id="CMPPMDgxON7yKhk_aNS9-215" value="Derived" style="whiteSpace=wrap;html=1;rounded=1;shadow=1;comic=0;labelBackgroundColor=none;strokeColor=#000000;strokeWidth=2;fillColor=#FFFFFF;fontFamily=Verdana;fontSize=12;fontColor=#000000;align=center;arcSize=50;dashed=1;dashPattern=1 1;" parent="1" vertex="1">
          <mxGeometry x="1876" y="1040" width="100" height="30" as="geometry"/>
        </mxCell>
        <mxCell id="CMPPMDgxON7yKhk_aNS9-218" style="rounded=0;orthogonalLoop=1;jettySize=auto;html=1;exitX=1;exitY=0.75;exitDx=0;exitDy=0;entryX=0;entryY=0.5;entryDx=0;entryDy=0;entryPerimeter=0;endArrow=none;endFill=0;" parent="1" source="CMPPMDgxON7yKhk_aNS9-217" target="CMPPMDgxON7yKhk_aNS9-146" edge="1">
          <mxGeometry relative="1" as="geometry"/>
        </mxCell>
        <mxCell id="CMPPMDgxON7yKhk_aNS9-217" value="&lt;span&gt;delivery cost&lt;/span&gt;" style="whiteSpace=wrap;html=1;rounded=1;shadow=1;comic=0;labelBackgroundColor=none;strokeColor=#000000;strokeWidth=2;fillColor=#FFFFFF;fontFamily=Verdana;fontSize=12;fontColor=#000000;align=center;arcSize=50;" parent="1" vertex="1">
          <mxGeometry x="850" y="127" width="100" height="20" as="geometry"/>
        </mxCell>
        <mxCell id="CMPPMDgxON7yKhk_aNS9-223" style="edgeStyle=none;rounded=0;orthogonalLoop=1;jettySize=auto;html=1;exitX=1;exitY=0.75;exitDx=0;exitDy=0;entryX=0;entryY=0.25;entryDx=0;entryDy=0;endArrow=none;endFill=0;" parent="1" source="CMPPMDgxON7yKhk_aNS9-220" target="CMPPMDgxON7yKhk_aNS9-93" edge="1">
          <mxGeometry relative="1" as="geometry"/>
        </mxCell>
        <mxCell id="CMPPMDgxON7yKhk_aNS9-220" value="&lt;span&gt;voucher&lt;/span&gt;" style="whiteSpace=wrap;html=1;rounded=1;shadow=1;comic=0;labelBackgroundColor=none;strokeColor=#000000;strokeWidth=2;fillColor=#FFFFFF;fontFamily=Verdana;fontSize=12;fontColor=#000000;align=center;arcSize=50;" parent="1" vertex="1">
          <mxGeometry x="510" y="385" width="100" height="20" as="geometry"/>
        </mxCell>
        <mxCell id="4p4MBh4yowYJrrC4Kuk--1" value="eircode" style="whiteSpace=wrap;html=1;rounded=1;shadow=1;comic=0;labelBackgroundColor=none;strokeColor=#000000;strokeWidth=2;fillColor=#FFFFFF;fontFamily=Verdana;fontSize=12;fontColor=#000000;align=center;arcSize=50;" vertex="1" parent="1">
          <mxGeometry x="1916" y="150" width="100" height="43" as="geometry"/>
        </mxCell>
      </root>
    </mxGraphModel>
  </diagram>
</mxfile>
